<svg width="1080" height="1080" viewBox="0 0 1080 1080" fill="none" xmlns="http://www.w3.org/2000/svg">
<g clip-path="url(#clip0_129_3087)">
<g clip-path="url(#clip1_129_3087)">
<path d="M63.1094 1025.41L728.129 194.62L1363.01 1025.41H63.1094Z" fill="url(#paint0_linear_129_3087)"/>
<path d="M1008.52 1025.41L728.129 194.62L1363.01 1025.41H1008.52Z" fill="#FFDEE4"/>
<path d="M555.72 2352.18C1390.04 2352.18 2066.39 1970.95 2066.39 1500.68C2066.39 1030.41 1390.04 649.18 555.72 649.18C-278.6 649.18 -954.95 1030.41 -954.95 1500.68C-954.95 1970.95 -278.6 2352.18 555.72 2352.18Z" fill="url(#paint1_linear_129_3087)"/>
<path d="M-128.221 966.799L402.239 304.109L908.669 966.799H-128.221Z" fill="url(#paint2_linear_129_3087)"/>
<path d="M625.899 966.799L402.239 304.109L908.669 966.799H625.899Z" fill="#FFDEE4"/>
<path d="M632.57 799.36L971.86 375.49L1295.78 799.36H632.57Z" fill="url(#paint3_linear_129_3087)"/>
<path d="M1114.92 799.36L971.86 375.49L1295.78 799.36H1114.92Z" fill="#FFDEE4"/>
<path d="M787.489 2383.63C1380.53 2383.63 1861.28 2002.4 1861.28 1532.13C1861.28 1061.86 1380.53 680.63 787.489 680.63C194.451 680.63 -286.301 1061.86 -286.301 1532.13C-286.301 2002.4 194.451 2383.63 787.489 2383.63Z" fill="#FFECD7"/>
<path d="M811.169 591.949C805.549 597.789 793.579 611.799 788.499 633.629C782.949 657.509 788.869 676.879 791.629 684.429H805.699C802.119 677.049 794.869 659.569 797.099 636.749C799.009 617.209 806.949 603.159 811.429 596.369C811.339 594.889 811.259 593.419 811.169 591.939V591.949Z" fill="#FFECD7"/>
<path d="M827.659 626.54C834.739 635.83 835.689 638.39 836.629 638.03C838.999 637.11 836.999 619.45 826.669 605.63C821.379 598.56 813.059 591.35 810.619 592.97C808.659 594.27 810.979 600.94 811.819 603.33C814.689 611.59 818.789 614.88 827.659 626.53V626.54Z" fill="#FFECD7"/>
<path d="M801.158 591C801.888 591.61 808.648 597.16 810.748 595.55C813.148 593.72 810.138 582.02 801.958 575.94C794.058 570.07 783.108 570.75 782.578 572.51C782.248 573.62 786.288 574.42 791.528 579.49C796.568 584.36 796.228 586.9 801.158 591Z" fill="#FFECD7"/>
<path d="M802.459 599.16C806.119 598.45 812.269 596.46 812.219 594.27C812.159 591.49 802.089 588.56 792.939 588.92C780.359 589.42 769.499 596.16 770.039 598.01C770.379 599.19 775.039 597.38 785.679 598.19C793.869 598.81 796.599 600.3 802.459 599.16Z" fill="#FFECD7"/>
<path d="M820.369 598.97C826.549 601.03 828.579 600.11 838.159 601.95C845.939 603.45 848.269 604.76 848.719 603.97C849.659 602.31 841.269 593.38 829.969 590.63C820.719 588.38 810.419 590.49 810.099 593.01C809.789 595.45 818.819 598.46 820.369 598.97Z" fill="#FFECD7"/>
<path d="M815.929 592.63C818.919 591.69 819.099 589.92 823.709 586.63C827.919 583.63 830.169 583.41 830.049 582.52C829.829 580.9 822.019 579.19 815.479 582.13C811.009 584.14 806.539 588.58 807.489 591C808.259 592.97 812.659 593.67 815.939 592.64L815.929 592.63Z" fill="#FFECD7"/>
<path d="M741.369 645.43C738.299 649.57 731.889 659.37 730.469 673.53C728.909 689.02 734.209 700.75 736.559 705.29C739.519 704.91 742.469 704.53 745.429 704.15C742.569 699.79 736.589 689.37 736.139 674.81C735.759 662.34 739.619 652.85 741.889 648.2C741.719 647.28 741.539 646.35 741.369 645.43Z" fill="#FFECD7"/>
<path d="M721.649 658.9C714.889 661.95 713.579 663.1 713.169 662.61C712.119 661.38 718.579 652.11 728.519 647.51C733.609 645.15 740.439 643.64 741.309 645.28C742.009 646.6 738.699 649.63 737.509 650.71C733.409 654.46 730.129 655.06 721.649 658.89V658.9Z" fill="#FFECD7"/>
<path d="M747.189 647.03C746.589 647.15 741.139 648.21 740.459 646.68C739.669 644.93 744.889 639.3 751.299 638.37C757.489 637.48 763.399 641.16 763.169 642.3C763.019 643.02 760.519 642.25 756.059 643.5C751.769 644.7 751.189 646.22 747.199 647.02L747.189 647.03Z" fill="#FFECD7"/>
<path d="M744.009 651.2C741.799 649.62 739.359 646.76 740.029 645.52C740.939 643.83 747.979 644.38 752.419 648.35C757.249 652.67 757.699 659.85 756.899 660.19C756.309 660.44 755.479 656.84 751.599 654.37C748.559 652.44 746.959 653.3 744.009 651.2Z" fill="#FFECD7"/>
<path d="M735.529 646.93C732.699 646.82 731.899 645.91 728.649 645.22C723.599 644.14 720.419 645.25 720.289 644.67C720.139 643.97 724.499 641.64 729.629 641.44C735.749 641.2 741.789 644.03 741.609 645.46C741.479 646.5 738.009 647.03 735.539 646.94L735.529 646.93Z" fill="#FFECD7"/>
<path d="M737.879 643.77C736.549 641.89 737.239 640.77 735.999 636.79C734.869 633.16 733.659 632.03 734.119 631.56C734.969 630.71 740.299 633.19 742.819 637.82C744.539 640.99 745.179 645.58 743.549 646.57C742.219 647.38 739.339 645.83 737.879 643.77Z" fill="#FFECD7"/>
<path d="M175.779 743.43C181.109 750.61 192.229 767.62 194.699 792.21C197.409 819.1 188.199 839.46 184.129 847.33L168.739 845.35C173.699 837.79 184.079 819.69 184.859 794.42C185.519 772.78 178.819 756.3 174.869 748.24C175.169 746.64 175.479 745.04 175.779 743.43Z" fill="#FFECD7"/>
<path d="M203.22 761.47C208.12 765.5 209.24 769.95 209.82 769.67C210.85 769.17 208.68 754.78 198.08 747.05C189.62 740.88 177.39 740.1 175.88 743.19C174.77 745.45 179.25 750.15 182.47 752.62C190.23 758.55 195.97 755.53 203.22 761.49V761.47Z" fill="#FFECD7"/>
<path d="M165.669 746.21C166.699 746.42 176.159 748.26 177.359 745.6C178.719 742.57 169.679 732.79 158.549 731.18C147.809 729.63 137.539 736.03 137.949 738.01C138.209 739.26 142.549 737.92 150.289 740.09C157.729 742.18 158.739 744.82 165.669 746.21Z" fill="#FFECD7"/>
<path d="M171.2 753.44C175.04 750.71 179.26 745.74 178.1 743.58C176.52 740.65 164.31 741.6 156.59 748.5C148.2 755.99 147.42 768.45 148.81 769.05C149.83 769.48 151.27 763.24 158.01 758.95C163.29 755.59 166.06 757.1 171.19 753.44H171.2Z" fill="#FFECD7"/>
<path d="M185.91 746.04C190.83 745.85 192.2 744.27 197.86 743.06C206.63 741.19 212.15 743.12 212.37 742.11C212.64 740.9 205.06 736.85 196.17 736.5C185.55 736.08 175.07 741 175.38 743.47C175.61 745.27 181.62 746.2 185.91 746.04Z" fill="#FFECD7"/>
<path d="M181.839 740.55C184.149 737.29 182.959 735.35 185.099 728.44C187.059 722.13 189.159 720.18 188.359 719.37C186.879 717.89 177.639 722.19 173.259 730.24C170.269 735.74 169.159 743.7 171.999 745.42C174.309 746.83 179.309 744.13 181.849 740.55H181.839Z" fill="#FFECD7"/>
<path d="M724.329 609.97C725.509 619.39 726.109 632.45 723.649 647.65C720.709 665.81 714.539 679.91 709.619 689.11H721.789C724.449 677.27 726.749 663.34 727.809 647.65C728.739 633.81 728.529 621.24 727.769 610.26C726.619 610.16 725.479 610.07 724.329 609.97Z" fill="#FFECD7"/>
<path d="M738.659 628.15C743.629 632.3 744.749 634.81 745.719 634.35C747.439 633.53 746.419 624.31 741.069 617.66C736.429 611.89 728.459 607.96 726.049 610.02C724.319 611.49 725.409 616.06 727.079 618.98C729.419 623.06 732.249 622.81 738.659 628.16V628.15Z" fill="#FFECD7"/>
<path d="M717.709 612.38C721.289 613.1 726.859 613.21 727.539 611.33C728.479 608.74 720.339 601.77 710.999 600.03C702.239 598.4 693.649 601.59 693.719 603.12C693.769 604.22 698.289 603.55 705.529 606.58C711.609 609.13 712.629 611.36 717.709 612.38Z" fill="#FFECD7"/>
<path d="M718.539 618.22C722.389 615.58 726.009 613.1 725.549 611.9C724.889 610.17 715.609 610.46 708.369 614.9C697.999 621.26 694.789 634.3 695.979 635.04C696.799 635.55 699.209 629.82 707.169 624.71C711.119 622.17 713.209 621.87 718.539 618.22Z" fill="#FFECD7"/>
<path d="M734.339 615.08C740.939 616.5 743.069 615.74 749.679 616.8C758.909 618.28 762.539 621 763.099 620.07C764.079 618.46 754.849 607.46 742.109 605.92C733.129 604.83 723.799 608.62 723.879 610.98C723.939 612.86 729.979 614.15 734.329 615.09L734.339 615.08Z" fill="#FFECD7"/>
<path d="M815.839 682.58C815.619 682.72 812.519 679.16 810.479 674.28C808.299 669.07 808.149 664.32 808.299 664.3C808.409 664.28 808.709 666.89 810.169 670.7C810.389 671.27 810.759 672.19 813.099 676.93C815.449 681.69 815.949 682.53 815.849 682.59L815.839 682.58Z" fill="#FFECD7"/>
<path d="M815.619 682.32C814.439 679.08 812.919 674.34 811.719 668.46C810.319 661.57 809.649 654.46 810.049 654.39C810.429 654.32 811.829 660.34 812.549 663.88C813.669 669.39 814.149 671.83 814.629 675.64C814.979 678.4 815.459 678.79 815.609 682.32" fill="#FFECD7"/>
<path d="M815.999 682.83C817.969 679.87 820.379 675.6 822.069 670.08C824.169 663.2 824.629 656.1 823.959 655.95C823.699 655.89 823.389 656.89 821.639 660.29C820.339 662.81 819.899 663.28 819.269 664.66C817.629 668.25 816.269 672.18 815.689 676.09C815.479 677.49 814.599 681.72 816.009 682.84" fill="#FFECD7"/>
<path d="M815.849 682.75C815.279 681.47 815.429 680.82 815.209 679.81C814.719 677.51 814.519 674.82 814.599 672.48C814.699 669.38 815.129 666.31 815.899 663.3C816.329 661.61 816.789 660.32 817.059 659.6C817.589 658.17 818.719 655.1 819.109 655.2C819.609 655.33 818.729 660.55 817.539 667.67C816.919 671.35 816.459 673.07 816.269 676.12C816.139 678.25 815.629 680.65 815.859 682.76" fill="#FFECD7"/>
<path d="M815.998 682.86C816.078 681.8 816.758 680.73 817.178 679.78C818.178 677.47 819.208 675.19 820.748 673.18C823.138 670.05 825.458 668.1 826.788 667.07C828.468 665.78 831.049 664.04 831.279 664.32C831.529 664.63 828.458 667.01 824.288 672.07C821.808 675.08 820.298 677.06 819.258 678.69C818.548 679.81 817.748 680.87 816.998 681.95C816.678 682.42 816.448 682.74 815.938 682.92C816.008 682.9 815.928 682.89 815.988 682.86" fill="#FFECD7"/>
<path d="M815.229 682.06C815.109 682.35 812.329 681.82 809.849 680.39C806.159 678.27 804.249 674.81 804.419 674.65C804.539 674.54 805.569 676.01 808.059 677.67C809.339 678.52 809.809 678.64 812.409 680.18C814.329 681.32 815.289 681.89 815.219 682.05L815.229 682.06Z" fill="#FFECD7"/>
<path d="M815.818 682.32C815.898 682.45 816.618 682.1 818.278 681.41C821.798 679.93 821.658 680.2 823.048 679.49C825.208 678.39 826.578 677.24 827.108 676.77C828.378 675.65 829.658 674.21 829.488 674C829.378 673.87 828.788 674.33 827.048 675.25C825.398 676.12 825.168 676.12 823.358 677.09C822.328 677.64 821.578 678.08 821.318 678.24C820.768 678.57 819.788 679.15 818.668 679.94C818.388 680.14 815.658 682.07 815.818 682.33V682.32Z" fill="#FFECD7"/>
<path d="M815.299 682.05C815.069 682.27 812.299 680.13 810.029 677.32C807.149 673.75 805.729 669.91 805.909 669.81C805.979 669.77 806.299 670.34 807.279 671.56C808.369 672.92 808.839 673.3 809.799 674.38C810.489 675.16 811.459 676.51 813.399 679.21C815.269 681.81 815.349 682 815.299 682.06V682.05Z" fill="#FFECD7"/>
<path d="M170.689 837.32C170.509 837.58 165.309 835.17 160.619 830.75C155.619 826.04 153.099 820.84 153.249 820.73C153.359 820.65 154.989 823.41 158.499 826.92C159.029 827.45 159.889 828.28 164.839 832.39C169.809 836.52 170.779 837.2 170.689 837.32Z" fill="#FFECD7"/>
<path d="M170.319 837.14C167.409 834.12 163.359 829.6 159.119 823.67C154.149 816.71 149.879 809.14 150.299 808.85C150.689 808.59 155.229 814.57 157.779 818.16C161.759 823.73 163.499 826.2 165.919 830.2C167.669 833.09 168.409 833.29 170.319 837.14Z" fill="#FFECD7"/>
<path d="M170.999 837.52C171.729 833.26 172.289 827.31 171.429 820.34C170.359 811.65 167.349 803.53 166.529 803.7C166.209 803.76 166.359 805.03 166.099 809.67C165.899 813.12 165.649 813.86 165.629 815.7C165.589 820.5 166.019 825.54 167.309 830.18C167.769 831.84 168.889 836.97 171.009 837.52" fill="#FFECD7"/>
<path d="M170.799 837.5C169.529 836.36 169.369 835.57 168.629 834.55C166.939 832.24 165.389 829.35 164.319 826.71C162.889 823.21 161.859 819.59 161.209 815.86C160.849 813.77 160.719 812.1 160.659 811.17C160.539 809.32 160.279 805.35 160.759 805.26C161.369 805.15 162.989 811.4 165.189 819.9C166.329 824.3 166.659 826.43 167.959 829.92C168.869 832.35 169.489 835.28 170.789 837.5" fill="#FFECD7"/>
<path d="M171.02 837.56C170.58 836.34 170.82 834.82 170.8 833.56C170.77 830.5 170.78 827.46 171.49 824.46C172.6 819.8 174.21 816.47 175.18 814.68C176.4 812.41 178.42 809.2 178.8 809.4C179.24 809.62 177 813.78 174.88 821.47C173.62 826.04 172.92 828.99 172.58 831.32C172.34 832.91 171.97 834.49 171.69 836.06C171.56 836.75 171.47 837.21 170.99 837.66C171.06 837.61 170.96 837.63 171.02 837.57" fill="#FFECD7"/>
<path d="M169.769 837.04C169.769 837.42 166.429 838.21 162.969 837.85C157.809 837.32 153.979 834.42 154.089 834.16C154.169 833.98 156.039 835.1 159.639 835.72C161.489 836.04 162.069 835.93 165.719 836.35C168.419 836.66 169.769 836.82 169.779 837.04H169.769Z" fill="#FFECD7"/>
<path d="M170.549 837.04C170.699 837.15 171.329 836.4 172.829 834.81C176.009 831.43 175.979 831.79 177.179 830.31C179.029 828.02 179.989 826.06 180.349 825.27C181.209 823.4 181.909 821.16 181.619 821.02C181.439 820.93 181.009 821.73 179.529 823.61C178.129 825.4 177.869 825.5 176.329 827.48C175.459 828.6 174.849 829.46 174.629 829.77C174.179 830.41 173.379 831.54 172.529 832.97C172.319 833.32 170.239 836.82 170.549 837.04Z" fill="#FFECD7"/>
<path d="M169.839 837.01C169.689 837.37 165.549 836.36 161.649 834.36C156.679 831.82 153.199 828.25 153.349 828.05C153.409 827.97 154.039 828.44 155.729 829.31C157.609 830.28 158.329 830.47 159.929 831.2C161.079 831.72 162.829 832.74 166.319 834.78C169.689 836.75 169.869 836.92 169.839 837V837.01Z" fill="#FFECD7"/>
<path d="M991.899 697.94C992.119 698.14 996.299 694.86 999.589 689.89C1003.1 684.59 1004.27 679.37 1004.12 679.31C1004 679.26 1003.12 682.09 1000.7 686C1000.34 686.59 999.739 687.52 996.139 692.27C992.529 697.04 991.809 697.86 991.899 697.95V697.94Z" fill="#FFECD7"/>
<path d="M992.199 697.699C994.189 694.359 996.879 689.439 999.449 683.189C1002.46 675.869 1004.71 668.139 1004.27 667.969C1003.86 667.819 1001.04 674.169 999.489 677.939C997.079 683.799 996.039 686.389 994.699 690.509C993.729 693.489 993.109 693.819 992.209 697.699" fill="#FFECD7"/>
<path d="M991.669 698.19C990.109 694.5 988.349 689.26 987.649 682.8C986.779 674.75 987.769 666.79 988.559 666.77C988.859 666.76 988.989 667.93 990.209 672.06C991.119 675.13 991.499 675.74 991.909 677.39C992.959 681.71 993.639 686.34 993.449 690.79C993.389 692.38 993.459 697.24 991.669 698.19Z" fill="#FFECD7"/>
<path d="M991.85 698.13C992.75 696.84 992.73 696.09 993.18 695.01C994.21 692.57 995 689.64 995.41 687.03C995.96 683.58 996.13 680.09 995.92 676.6C995.81 674.64 995.57 673.11 995.42 672.26C995.14 670.57 994.53 666.93 994.08 666.96C993.5 666.99 993.37 672.96 993.18 681.09C993.08 685.29 993.24 687.29 992.8 690.7C992.49 693.09 992.55 695.85 991.85 698.13Z" fill="#FFECD7"/>
<path d="M991.659 698.23C991.799 697.04 991.269 695.72 991.009 694.57C990.399 691.81 989.739 689.06 988.459 686.52C986.479 682.56 984.319 679.9 983.069 678.48C981.489 676.69 978.999 674.23 978.689 674.48C978.339 674.77 981.239 678.05 984.779 684.53C986.879 688.38 988.129 690.89 988.939 692.92C989.489 694.31 990.159 695.65 990.749 697C991.009 697.59 991.189 697.99 991.709 698.29C991.639 698.26 991.729 698.25 991.659 698.22" fill="#FFECD7"/>
<path d="M992.679 697.5C992.749 697.84 995.929 697.85 998.979 696.79C1003.51 695.22 1006.36 691.8 1006.2 691.59C1006.09 691.45 1004.64 692.85 1001.53 694.16C999.929 694.83 999.389 694.86 996.189 696.01C993.819 696.86 992.639 697.29 992.679 697.49V697.5Z" fill="#FFECD7"/>
<path d="M991.969 697.659C991.859 697.789 991.129 697.249 989.439 696.129C985.859 693.749 985.959 694.069 984.569 692.989C982.419 691.319 981.139 689.749 980.649 689.119C979.479 687.619 978.369 685.749 978.609 685.559C978.759 685.439 979.309 686.069 981.039 687.459C982.679 688.769 982.939 688.819 984.739 690.269C985.759 691.099 986.499 691.739 986.759 691.979C987.299 692.459 988.259 693.319 989.329 694.419C989.599 694.689 992.209 697.409 991.969 697.669V697.659Z" fill="#FFECD7"/>
<path d="M992.609 697.479C992.819 697.769 996.339 695.989 999.439 693.359C1003.38 690.019 1005.76 686.069 1005.59 685.919C1005.52 685.859 1005.05 686.419 1003.71 687.559C1002.22 688.829 1001.61 689.159 1000.32 690.149C999.399 690.859 998.039 692.149 995.319 694.729C992.699 697.219 992.569 697.409 992.619 697.479H992.609Z" fill="#FFECD7"/>
<path d="M1008.43 714.77C1008.65 715.09 1014.94 712.07 1020.57 706.63C1026.58 700.83 1029.56 694.47 1029.38 694.35C1029.25 694.26 1027.31 697.64 1023.09 701.95C1022.46 702.6 1021.42 703.62 1015.47 708.69C1009.49 713.78 1008.33 714.62 1008.43 714.77Z" fill="#FFECD7"/>
<path d="M1008.88 714.55C1012.38 710.83 1017.23 705.29 1022.29 698.01C1028.22 689.47 1033.31 680.21 1032.79 679.87C1032.31 679.56 1026.89 686.9 1023.83 691.3C1019.08 698.13 1017 701.15 1014.12 706.05C1012.03 709.59 1011.14 709.85 1008.88 714.55Z" fill="#FFECD7"/>
<path d="M1008.06 715.03C1007.11 709.86 1006.34 702.64 1007.28 694.15C1008.45 683.58 1011.98 673.66 1012.99 673.85C1013.38 673.92 1013.21 675.46 1013.61 681.1C1013.9 685.29 1014.22 686.18 1014.27 688.42C1014.39 694.26 1013.94 700.39 1012.45 706.04C1011.91 708.06 1010.64 714.32 1008.07 715.02" fill="#FFECD7"/>
<path d="M1008.3 715C1009.82 713.6 1010 712.63 1010.89 711.38C1012.9 708.54 1014.75 705.01 1016.02 701.78C1017.7 697.51 1018.91 693.09 1019.64 688.55C1020.05 686 1020.18 683.98 1020.24 682.84C1020.36 680.59 1020.61 675.76 1020.03 675.66C1019.28 675.54 1017.41 683.15 1014.86 693.52C1013.54 698.88 1013.17 701.48 1011.64 705.74C1010.57 708.71 1009.86 712.27 1008.31 715" fill="#FFECD7"/>
<path d="M1008.04 715.07C1008.55 713.58 1008.25 711.74 1008.25 710.2C1008.25 706.48 1008.18 702.78 1007.27 699.15C1005.85 693.51 1003.85 689.48 1002.64 687.31C1001.12 684.57 998.629 680.7 998.159 680.94C997.629 681.21 1000.41 686.24 1003.11 695.56C1004.71 701.1 1005.6 704.67 1006.06 707.5C1006.37 709.43 1006.84 711.34 1007.22 713.25C1007.38 714.08 1007.5 714.65 1008.09 715.18C1008.01 715.12 1008.13 715.14 1008.05 715.07" fill="#FFECD7"/>
<path d="M1009.55 714.42C1009.55 714.88 1013.62 715.79 1017.83 715.3C1024.09 714.58 1028.71 711 1028.56 710.69C1028.46 710.48 1026.2 711.86 1021.84 712.66C1019.6 713.07 1018.89 712.95 1014.46 713.52C1011.18 713.94 1009.54 714.15 1009.54 714.42H1009.55Z" fill="#FFECD7"/>
<path d="M1008.6 714.43C1008.42 714.56 1007.64 713.67 1005.8 711.75C1001.88 707.68 1001.92 708.13 1000.44 706.34C998.159 703.58 996.969 701.21 996.519 700.26C995.449 698 994.559 695.29 994.909 695.11C995.129 695 995.669 695.96 997.489 698.23C999.219 700.38 999.539 700.51 1001.43 702.89C1002.51 704.24 1003.26 705.28 1003.53 705.65C1004.09 706.42 1005.07 707.79 1006.13 709.51C1006.39 709.94 1008.97 714.16 1008.6 714.43Z" fill="#FFECD7"/>
<path d="M1009.47 714.38C1009.65 714.81 1014.67 713.52 1019.39 711.04C1025.39 707.88 1029.57 703.49 1029.38 703.25C1029.31 703.15 1028.54 703.74 1026.5 704.82C1024.23 706.03 1023.36 706.27 1021.42 707.18C1020.03 707.83 1017.92 709.1 1013.71 711.63C1009.64 714.07 1009.42 714.28 1009.47 714.38Z" fill="#FFECD7"/>
<path d="M684.24 3768.43C1464.24 3768.43 2096.55 3136.12 2096.55 2356.12C2096.55 1576.12 1464.24 943.81 684.24 943.81C-95.7575 943.81 -728.07 1576.12 -728.07 2356.12C-728.07 3136.12 -95.7575 3768.43 684.24 3768.43Z" fill="#F9C5D0"/>
<path d="M487.56 759.23C500.95 773.14 529.47 806.53 541.56 858.54C554.78 915.42 540.67 961.59 534.11 979.57C522.94 979.57 511.76 979.57 500.59 979.57C509.12 961.99 526.39 920.35 521.08 865.99C516.53 819.43 497.61 785.97 486.94 769.78C487.15 766.26 487.35 762.75 487.56 759.23Z" fill="#F9C5D0"/>
<path d="M448.27 841.65C431.41 863.78 429.15 869.89 426.9 869.02C421.25 866.83 426.02 824.75 450.63 791.84C463.23 774.99 483.06 757.83 488.87 761.69C493.54 764.79 488 780.68 486.02 786.38C479.17 806.05 469.42 813.9 448.28 841.65H448.27Z" fill="#F9C5D0"/>
<path d="M511.39 756.98C509.64 758.43 493.55 771.65 488.55 767.83C482.84 763.47 490 735.59 509.5 721.1C528.32 707.12 554.41 708.74 555.67 712.93C556.46 715.57 546.84 717.47 534.34 729.56C522.34 741.17 523.13 747.22 511.39 756.99V756.98Z" fill="#F9C5D0"/>
<path d="M508.3 776.4C499.58 774.7 484.93 769.97 485.05 764.75C485.2 758.13 509.19 751.14 530.98 752C560.95 753.19 586.82 769.24 585.55 773.65C584.74 776.46 573.63 772.15 548.28 774.08C528.77 775.56 522.27 779.11 508.3 776.39V776.4Z" fill="#F9C5D0"/>
<path d="M465.63 775.95C450.91 780.85 446.08 778.66 423.25 783.06C404.72 786.63 399.17 789.76 398.1 787.87C395.86 783.92 415.85 762.64 442.78 756.08C464.82 750.71 489.35 755.74 490.11 761.74C490.84 767.56 469.33 774.72 465.64 775.95H465.63Z" fill="#F9C5D0"/>
<path d="M476.22 760.86C469.1 758.63 468.67 754.39 457.68 746.56C447.64 739.4 442.3 738.88 442.58 736.76C443.1 732.89 461.7 728.83 477.3 735.83C487.96 740.61 498.6 751.19 496.35 756.96C494.51 761.66 484.03 763.31 476.22 760.86Z" fill="#F9C5D0"/>
<path d="M615.331 831.08C607.531 845.4 598.351 865.88 592.731 891.73C586.021 922.6 587.011 949.02 589.091 966.8C582.611 964.25 576.121 961.7 569.641 959.15C572.831 938.56 577.911 914.85 586.081 889.11C593.281 866.41 601.521 846.45 609.651 829.38C611.541 829.95 613.441 830.51 615.331 831.08Z" fill="#F9C5D0"/>
<path d="M581 851.13C570.46 854.63 567.08 857.94 565.83 856.6C563.59 854.21 571.02 840.11 583.75 832.84C594.79 826.53 610 825.26 612.56 830.07C614.39 833.51 609.79 840.12 605.27 843.75C598.97 848.8 594.6 846.62 581 851.14V851.13Z" fill="#F9C5D0"/>
<path d="M624.41 839.1C618.24 838 609.26 834.67 609.35 831.24C609.48 826.51 626.86 820.49 642.88 823.57C657.91 826.47 669.63 836.97 668.56 839.37C667.79 841.1 661 837.18 647.51 837.48C636.19 837.73 633.16 840.66 624.4 839.09L624.41 839.1Z" fill="#F9C5D0"/>
<path d="M619.41 847.9C614.91 841.27 610.68 835.03 612.18 833.39C614.32 831.04 628.97 837.34 637.75 848.99C650.32 865.67 647.25 888.53 644.9 888.96C643.26 889.26 643.02 878.58 633.51 865.42C628.78 858.88 625.64 857.09 619.41 847.9Z" fill="#F9C5D0"/>
<path d="M596.13 832.95C584.68 831.06 581.75 828.52 570.54 826.05C554.86 822.6 547.35 824.68 547.03 822.84C546.47 819.64 568.15 807.87 589.47 813.41C604.5 817.32 617.03 829.24 615.42 832.95C614.14 835.91 603.68 834.19 596.13 832.95Z" fill="#F9C5D0"/>
<path d="M474.27 962.62C474.9 963.01 483.66 952.96 489.43 939.14C495.58 924.41 496.01 910.99 495.6 910.91C495.29 910.85 494.45 918.25 490.31 929.01C489.69 930.63 488.65 933.21 482.03 946.62C475.38 960.08 473.98 962.44 474.27 962.62Z" fill="#F9C5D0"/>
<path d="M474.899 961.88C478.229 952.71 482.539 939.3 485.919 922.68C489.879 903.2 491.789 883.08 490.629 882.88C489.559 882.69 485.589 899.69 483.549 909.73C480.379 925.32 479.019 932.2 477.659 942.98C476.679 950.77 475.309 951.9 474.899 961.88Z" fill="#F9C5D0"/>
<path d="M473.809 963.35C468.229 954.99 461.409 942.89 456.639 927.29C450.689 907.84 449.389 887.76 451.309 887.32C452.049 887.15 452.919 889.97 457.879 899.58C461.559 906.72 462.809 908.04 464.579 911.93C469.209 922.08 473.059 933.19 474.719 944.25C475.309 948.21 477.799 960.16 473.819 963.34" fill="#F9C5D0"/>
<path d="M474.23 963.11C475.84 959.49 475.43 957.66 476.04 954.79C477.43 948.28 477.99 940.69 477.77 934.06C477.49 925.28 476.26 916.61 474.11 908.09C472.9 903.31 471.59 899.65 470.84 897.61C469.35 893.57 466.14 884.89 465.03 885.17C463.62 885.53 466.1 900.3 469.48 920.43C471.23 930.84 472.54 935.69 473.07 944.32C473.44 950.35 474.89 957.14 474.23 963.1" fill="#F9C5D0"/>
<path d="M473.8 963.43C473.57 960.42 471.64 957.42 470.47 954.72C467.65 948.2 464.73 941.74 460.39 936.06C453.63 927.22 447.06 921.68 443.31 918.78C438.57 915.12 431.26 910.22 430.62 910.99C429.9 911.86 438.58 918.59 450.37 932.91C457.38 941.42 461.64 947.01 464.58 951.64C466.59 954.8 468.86 957.79 470.96 960.85C471.88 962.19 472.51 963.09 473.95 963.58C473.76 963.54 473.99 963.48 473.8 963.42" fill="#F9C5D0"/>
<path d="M475.98 961.16C476.32 961.97 484.17 960.48 491.19 956.44C501.63 950.44 507.03 940.66 506.54 940.22C506.21 939.92 503.29 944.06 496.24 948.77C492.62 951.19 491.28 951.5 483.94 955.86C478.5 959.08 475.79 960.69 475.98 961.16Z" fill="#F9C5D0"/>
<path d="M474.31 961.88C474.09 962.25 472.05 961.27 467.36 959.3C457.4 955.13 457.81 955.87 453.86 953.86C447.77 950.75 443.88 947.49 442.37 946.16C438.79 943 435.16 938.92 435.65 938.34C435.96 937.98 437.63 939.27 442.54 941.87C447.2 944.34 447.86 944.32 452.98 947.06C455.89 948.62 458.01 949.87 458.76 950.32C460.32 951.25 463.09 952.91 466.25 955.13C467.03 955.68 474.76 961.14 474.3 961.9L474.31 961.88Z" fill="#F9C5D0"/>
<path d="M475.8 961.14C476.45 961.76 484.29 955.7 490.69 947.77C498.83 937.68 502.85 926.81 502.33 926.53C502.12 926.41 501.23 928.02 498.47 931.46C495.4 935.3 494.05 936.38 491.34 939.44C489.4 941.63 486.65 945.45 481.17 953.09C475.88 960.46 475.65 960.99 475.8 961.14Z" fill="#F9C5D0"/>
<path d="M16.4703 1118.37C15.7503 1118.73 5.78028 1109.37 -0.799717 1096.51C-7.80972 1082.79 -8.29972 1070.3 -7.82972 1070.22C-7.47972 1070.16 -6.51972 1077.05 -1.80972 1087.08C-1.09972 1088.59 0.0802822 1090.99 7.62028 1103.48C15.1903 1116.02 16.7903 1118.21 16.4603 1118.38L16.4703 1118.37Z" fill="#F9C5D0"/>
<path d="M15.7597 1117.68C11.9697 1109.14 7.04974 1096.66 3.20974 1081.18C-1.30026 1063.04 -3.47026 1044.31 -2.16026 1044.12C-0.940261 1043.95 3.57974 1059.77 5.89974 1069.12C9.50974 1083.64 11.0597 1090.04 12.6097 1100.08C13.7297 1107.34 15.2897 1108.38 15.7497 1117.68" fill="#F9C5D0"/>
<path d="M16.9901 1119.05C23.3501 1111.27 31.1201 1100 36.5501 1085.47C43.3301 1067.36 44.8101 1048.66 42.6301 1048.26C41.7901 1048.1 40.8001 1050.73 35.1501 1059.68C30.9501 1066.33 29.5401 1067.56 27.5201 1071.18C22.2401 1080.63 17.8601 1090.97 15.9701 1101.28C15.3001 1104.97 12.4601 1116.09 17.0001 1119.05" fill="#F9C5D0"/>
<path d="M16.5198 1118.84C14.6898 1115.47 15.1498 1113.77 14.4498 1111.1C12.8698 1105.04 12.2298 1097.97 12.4698 1091.8C12.7898 1083.63 14.1898 1075.55 16.6398 1067.62C18.0198 1063.17 19.5098 1059.76 20.3698 1057.87C22.0698 1054.11 25.7298 1046.03 26.9798 1046.29C28.5798 1046.62 25.7598 1060.38 21.9098 1079.12C19.9198 1088.81 18.4198 1093.33 17.8198 1101.36C17.3998 1106.97 15.7498 1113.29 16.4998 1118.85" fill="#F9C5D0"/>
<path d="M16.9998 1119.13C17.2598 1116.33 19.4598 1113.53 20.7898 1111.02C23.9998 1104.95 27.3298 1098.94 32.2798 1093.65C39.9798 1085.42 47.4598 1080.26 51.7398 1077.56C57.1398 1074.15 65.4698 1069.59 66.1998 1070.31C67.0198 1071.12 57.1298 1077.39 43.6998 1090.72C35.7198 1098.64 30.8598 1103.85 27.5098 1108.16C25.2198 1111.1 22.6298 1113.89 20.2398 1116.74C19.1898 1117.99 18.4698 1118.82 16.8398 1119.28C17.0498 1119.24 16.7898 1119.19 17.0098 1119.13" fill="#F9C5D0"/>
<path d="M603.489 962.33C603.059 962.6 597.039 955.69 593.069 946.19C588.839 936.06 588.539 926.83 588.829 926.78C589.039 926.74 589.619 931.82 592.459 939.23C592.889 940.34 593.599 942.12 598.149 951.34C602.719 960.6 603.689 962.22 603.489 962.34V962.33Z" fill="#F9C5D0"/>
<path d="M603.059 961.82C600.769 955.52 597.809 946.3 595.479 934.87C592.759 921.48 591.449 907.65 592.239 907.51C592.979 907.38 595.709 919.07 597.109 925.97C599.289 936.69 600.229 941.42 601.159 948.83C601.839 954.19 602.779 954.96 603.059 961.82Z" fill="#F9C5D0"/>
<path d="M603.81 962.83C607.65 957.08 612.34 948.77 615.62 938.04C619.71 924.67 620.6 910.86 619.29 910.56C618.78 910.44 618.18 912.38 614.77 918.99C612.24 923.9 611.38 924.81 610.16 927.48C606.98 934.46 604.33 942.1 603.19 949.7C602.78 952.42 601.07 960.64 603.81 962.82" fill="#F9C5D0"/>
<path d="M603.53 962.67C602.42 960.18 602.7 958.93 602.28 956.95C601.33 952.48 600.94 947.26 601.09 942.7C601.29 936.67 602.13 930.7 603.61 924.85C604.44 921.56 605.34 919.05 605.86 917.65C606.89 914.87 609.09 908.91 609.85 909.1C610.82 909.34 609.11 919.5 606.79 933.34C605.59 940.5 604.68 943.83 604.32 949.76C604.07 953.9 603.07 958.57 603.52 962.67" fill="#F9C5D0"/>
<path d="M603.82 962.89C603.98 960.82 605.299 958.76 606.109 956.9C608.049 952.41 610.059 947.98 613.039 944.07C617.689 937.99 622.199 934.18 624.789 932.19C628.049 929.68 633.07 926.3 633.52 926.84C634.01 927.44 628.04 932.07 619.94 941.91C615.12 947.76 612.189 951.61 610.169 954.79C608.789 956.96 607.22 959.02 605.78 961.12C605.15 962.04 604.709 962.66 603.729 963C603.859 962.97 603.7 962.93 603.83 962.89" fill="#F9C5D0"/>
<path d="M602.32 961.33C602.09 961.89 596.69 960.86 591.86 958.09C584.68 953.96 580.97 947.24 581.3 946.94C581.53 946.73 583.54 949.58 588.38 952.82C590.87 954.48 591.79 954.7 596.84 957.69C600.58 959.91 602.45 961.01 602.31 961.34L602.32 961.33Z" fill="#F9C5D0"/>
<path d="M603.469 961.83C603.619 962.08 605.019 961.41 608.249 960.06C615.099 957.19 614.819 957.7 617.529 956.32C621.719 954.18 624.389 951.94 625.429 951.02C627.889 948.85 630.379 946.04 630.049 945.64C629.839 945.39 628.689 946.28 625.309 948.06C622.099 949.76 621.649 949.74 618.129 951.63C616.129 952.7 614.669 953.56 614.149 953.87C613.079 954.51 611.169 955.65 608.999 957.18C608.459 957.56 603.149 961.31 603.459 961.83H603.469Z" fill="#F9C5D0"/>
<path d="M602.44 961.32C601.99 961.74 596.61 957.58 592.2 952.13C586.6 945.19 583.84 937.72 584.19 937.52C584.33 937.44 584.95 938.54 586.85 940.91C588.96 943.55 589.89 944.3 591.75 946.4C593.09 947.91 594.97 950.53 598.74 955.79C602.38 960.85 602.54 961.22 602.43 961.32H602.44Z" fill="#F9C5D0"/>
<path d="M1007.82 988.79C1007.43 989.08 1000.55 984.51 995.34 977.52C989.78 970.07 988.23 962.68 988.5 962.59C988.7 962.52 989.97 966.52 993.78 972.01C994.35 972.84 995.3 974.15 1001.05 980.82C1006.82 987.52 1007.99 988.66 1007.82 988.79Z" fill="#F9C5D0"/>
<path d="M1007.33 988.45C1004.21 983.75 1000.03 976.82 996.18 968C991.67 957.66 988.49 946.73 989.25 946.49C989.96 946.26 994.25 955.23 996.57 960.55C1000.18 968.82 1001.75 972.48 1003.69 978.3C1005.09 982.51 1006.12 982.97 1007.34 988.45" fill="#F9C5D0"/>
<path d="M1008.2 989.14C1011.2 983.87 1014.68 976.38 1016.45 967.19C1018.66 955.73 1017.65 944.45 1016.31 944.43C1015.79 944.43 1015.47 946.09 1013.01 951.98C1011.18 956.36 1010.47 957.24 1009.63 959.59C1007.44 965.75 1005.88 972.34 1005.79 978.67C1005.76 980.93 1005.19 987.84 1008.19 989.14" fill="#F9C5D0"/>
<path d="M1007.9 989.059C1006.47 987.239 1006.57 986.179 1005.89 984.659C1004.34 981.209 1003.24 977.069 1002.77 973.369C1002.14 968.469 1002.15 963.529 1002.81 958.559C1003.18 955.769 1003.73 953.599 1004.05 952.379C1004.68 949.969 1006.04 944.789 1006.82 944.819C1007.81 944.859 1007.51 953.329 1007.12 964.869C1006.91 970.839 1006.48 973.679 1006.93 978.519C1007.25 981.899 1006.9 985.829 1007.91 989.059" fill="#F9C5D0"/>
<path d="M1008.21 989.19C1008.08 987.5 1009.11 985.61 1009.65 983.98C1010.95 980.04 1012.32 976.13 1014.73 972.48C1018.48 966.81 1022.41 962.98 1024.69 960.94C1027.56 958.37 1032.05 954.81 1032.56 955.17C1033.13 955.57 1027.87 960.3 1021.23 969.58C1017.28 975.1 1014.91 978.69 1013.36 981.59C1012.29 983.57 1011.03 985.49 1009.9 987.43C1009.4 988.28 1009.06 988.85 1008.13 989.29C1008.25 989.24 1008.09 989.24 1008.21 989.18" fill="#F9C5D0"/>
<path d="M1006.53 988.18C1006.38 988.67 1000.92 988.74 995.78 987.31C988.14 985.18 983.56 980.39 983.85 980.09C984.05 979.89 986.41 981.85 991.64 983.64C994.32 984.56 995.26 984.58 1000.64 986.15C1004.63 987.31 1006.62 987.89 1006.53 988.17V988.18Z" fill="#F9C5D0"/>
<path d="M1007.73 988.39C1007.92 988.57 1009.2 987.79 1012.2 986.16C1018.56 982.7 1018.35 983.16 1020.84 981.59C1024.68 979.17 1027.01 976.91 1027.91 976C1030.04 973.84 1032.11 971.16 1031.73 970.89C1031.49 970.72 1030.48 971.63 1027.39 973.64C1024.46 975.54 1024.01 975.61 1020.8 977.72C1018.97 978.92 1017.66 979.85 1017.19 980.19C1016.22 980.88 1014.5 982.12 1012.57 983.71C1012.09 984.11 1007.37 988.02 1007.75 988.38L1007.73 988.39Z" fill="#F9C5D0"/>
<path d="M1006.65 988.15C1006.27 988.57 1000.39 986.11 995.3 982.45C988.83 977.8 985.09 972.24 985.41 972.02C985.54 971.93 986.3 972.72 988.49 974.31C990.93 976.08 991.95 976.53 994.07 977.91C995.59 978.9 997.81 980.7 1002.25 984.3C1006.53 987.77 1006.74 988.04 1006.64 988.14L1006.65 988.15Z" fill="#F9C5D0"/>
<path d="M1101.02 813.59C1091.66 826.8 1063.16 870.57 1066.64 931.81C1070.96 1007.82 1121.31 1053.5 1131.07 1062.02C1144.85 1053.47 1158.64 1044.91 1172.42 1036.36C1163 1031.27 1109.18 1001.02 1091.24 934.46C1075.85 877.37 1096.94 830.95 1102.74 819.15C1102.17 817.3 1101.59 815.45 1101.02 813.59Z" fill="#F9C5D0"/>
<path d="M1045.64 854.75C1036.1 864.6 1034.8 874.43 1033.47 873.96C1031.14 873.13 1032.27 841.72 1053.14 822.51C1069.79 807.19 1095.85 802.53 1099.87 808.78C1102.82 813.37 1094.34 824.56 1088.03 830.63C1072.82 845.25 1059.75 840.19 1045.65 854.75H1045.64Z" fill="#F9C5D0"/>
<path d="M1079.01 817.39C1068.41 818.19 1065.06 815.13 1052.63 813.93C1033.35 812.07 1021.97 817.56 1021.25 815.44C1020.38 812.91 1035.65 802.36 1054.66 799.42C1077.35 795.91 1101.08 803.91 1100.99 809.3C1100.93 813.22 1088.25 816.69 1079.01 817.39Z" fill="#F9C5D0"/>
<path d="M1086.42 804.61C1080.66 798.18 1082.74 793.71 1076.45 779.41C1070.7 766.35 1065.7 762.66 1067.24 760.73C1070.04 757.19 1090.96 764.16 1102.32 780.36C1110.09 791.43 1114.41 808.26 1108.75 812.65C1104.14 816.23 1092.74 811.67 1086.42 804.61Z" fill="#F9C5D0"/>
<path d="M1018.09 892.72C1016.46 903.49 1012.57 938.41 1033.17 974.15C1058.75 1018.52 1102.81 1030.74 1111.25 1032.91C1116.95 1023.6 1122.64 1014.3 1128.34 1004.99C1121.14 1004.78 1079.66 1002.87 1048.76 968.3C1022.25 938.65 1020.89 904.38 1020.81 895.54C1019.91 894.6 1019 893.66 1018.1 892.72H1018.09Z" fill="#F9C5D0"/>
<path d="M1051.75 919.25C1057.42 925.43 1058.05 931.46 1058.86 931.19C1060.3 930.72 1060.13 911.5 1047.7 899.42C1037.78 889.78 1021.93 886.5 1019.37 890.25C1017.49 893 1022.48 899.99 1026.24 903.8C1035.29 912.99 1043.36 910.12 1051.74 919.25H1051.75Z" fill="#F9C5D0"/>
<path d="M1005.46 892.32C1006.77 892.78 1018.81 896.94 1020.86 893.69C1023.21 889.98 1013.19 875.51 998.93 871.34C985.17 867.32 970.55 873.78 970.72 876.45C970.83 878.13 976.75 877.18 986.48 881.46C995.82 885.57 996.65 889.21 1005.46 892.32Z" fill="#F9C5D0"/>
<path d="M1011.35 902.81C1016.88 899.94 1023.33 894.24 1022.21 891.2C1020.69 887.07 1004.54 886.05 993.17 893.64C980.8 901.89 977.48 918.04 979.19 919.07C980.44 919.83 983.48 911.92 993.1 907.57C1000.63 904.16 1003.98 906.64 1011.36 902.81H1011.35Z" fill="#F9C5D0"/>
<path d="M1031.98 895.85C1038.45 896.52 1040.54 894.7 1048.16 894.18C1059.97 893.37 1066.84 896.91 1067.32 895.63C1067.89 894.1 1058.74 887.4 1047.17 885.28C1033.36 882.76 1018.73 887.25 1018.69 890.54C1018.66 892.94 1026.35 895.27 1031.99 895.85H1031.98Z" fill="#F9C5D0"/>
<path d="M1024.31 893.82C1027.49 892.23 1027.19 889.94 1031.57 885.15C1035.57 880.77 1038.1 880.19 1037.7 879.07C1036.98 877.03 1027.47 875.88 1020.76 880.48C1016.17 883.63 1012.29 889.88 1014.08 892.84C1015.54 895.25 1020.82 895.56 1024.31 893.82Z" fill="#F9C5D0"/>
<path d="M56.3499 516.94C58.4199 664.41 3.48999 1175.41 -120.98 1361.27C-265.44 1576.99 -640.08 2042.37 -640.08 2042.37L-518.54 2176.46C-518.54 2176.46 -206.48 1729.13 -35.8801 1419.85C139.58 1101.78 89.4799 506.63 89.4799 506.63L56.3499 516.94Z" fill="#1A2E35"/>
<g opacity="0.6">
<path d="M56.3499 516.94C58.4199 664.41 3.48999 1175.41 -120.98 1361.27C-265.44 1576.99 -640.08 2042.37 -640.08 2042.37L-518.54 2176.46C-518.54 2176.46 -206.48 1729.13 -35.8801 1419.85C139.58 1101.78 89.4799 506.63 89.4799 506.63L56.3499 516.94Z" fill="#1A2E35"/>
</g>
<path d="M66.6299 535.24C66.6299 535.24 206.9 566.02 233.46 571.79C247.77 574.87 280.22 584.75 312.2 594.1L288.77 510.88L328.23 598.7C349.79 604.82 369.75 610.07 381.94 612.07C383.25 612.29 384.67 612.52 386.14 612.82L376.29 549.06L392.74 613.96C395.9 614.54 399.28 615.15 402.93 615.86C402.53 596.09 392.6 506.5 392.6 506.5L429.59 621.02C462.71 627.81 501.26 636.44 520.82 642.8L525.32 542.28L557.83 666.62C575.43 681.13 597.41 700.4 615.77 716.1L624.85 660.84L622.73 721.95C628.54 726.89 633.89 731.25 638.36 734.79L649.24 668.55L658.63 742.61C670.89 739.4 690.59 729.5 690.89 727.65C691.26 725.41 631.08 617.07 617.96 606.05C604.84 595.03 511.94 513.03 467.15 498.65C422.36 484.28 240.41 467.02 196.91 476.21C153.41 485.4 66.6399 535.25 66.6399 535.25L66.6299 535.24Z" fill="#1A2E35"/>
<path d="M80.81 550.13C80.81 550.13 13.7 647.43 0.949966 665.8C-5.94003 675.68 -19.34 700.37 -32.83 724.4L-82.08 646.32L-39.66 736.37C-48.9 752.43 -57.78 766.96 -64.13 774.88C-64.81 775.73 -65.55 776.66 -66.27 777.65L-109.26 722.05L-69.67 781.99C-71.27 784.09 -72.99 786.33 -74.8 788.79C-89.85 772.93 -152.79 696.83 -152.79 696.83L-88.08 806.74C-104.3 829.34 -122.61 856.21 -130.37 871.41L-211.14 794.15L-135.92 909.51C-136.09 930.15 -135.42 956.84 -135.17 978.81L-183.85 939.77L-135.14 987.06C-135.08 993.99 -135.17 1000.22 -135.33 1005.35L-193.69 958.55L-142.42 1022.08C-152.85 1025.91 -173.29 1028.32 -174.93 1027C-176.9 1025.42 -221.79 908.35 -221.82 892.8C-221.85 877.25 -225.12 764.02 -207.21 729.36C-189.3 694.69 -84.69 586.44 -49.37 571.11C-14.05 555.77 80.82 550.14 80.82 550.14L80.81 550.13Z" fill="#1A2E35"/>
<path d="M408.959 47.3797C408.959 47.3797 402.559 62.1297 397.159 73.5897C395.689 76.6997 394.289 79.6097 393.079 81.8797C391.959 84.0597 391.049 85.6697 390.499 86.3497C389.949 87.0297 386.909 91.4497 382.329 98.4197L313.969 85.9697L367.589 120.68C365.389 123.99 363.079 127.44 360.709 131.05L277.679 104.77L352.739 143.2C351.379 145.23 350.069 147.28 348.689 149.37C347.159 151.69 345.629 154.02 344.079 156.39L336.079 168.64L204.039 153.74L314.329 202.05C312.669 204.56 311.079 207.04 309.549 209.36C307.569 212.4 305.699 215.31 303.969 218.03C301.239 222.27 298.779 226.13 296.649 229.41C293.899 233.7 291.739 237.09 290.369 239.29L167.929 237.55L284.079 246.69C280.199 250.38 274.919 254.48 268.629 259.21L130.659 269.72L251.979 271.45C243.969 277.3 235.189 283.76 226.149 290.76L111.269 301.59L205.079 307.97C200.849 311.64 196.629 315.44 192.479 319.37L192.409 319.4C180.929 330.34 170.109 342.06 161.029 354.79C159.069 357.48 157.179 360.26 155.409 363.09C100.069 450.48 83.4791 546.72 83.4791 546.72C83.4791 546.72 62.1991 457.31 65.9491 376.53C68.0191 331.99 107.459 224.23 126.799 192.16C146.159 160.04 235.019 92.5497 247.849 84.3097C260.639 75.9997 370.379 37.4097 370.379 37.4097L408.949 47.3697L408.959 47.3797Z" fill="#22466B"/>
<path d="M-478.1 753.37C-478.1 753.37 -462.28 750.49 -449.89 747.84C-446.52 747.11 -443.37 746.42 -440.89 745.75C-438.51 745.16 -436.73 744.64 -435.95 744.26C-435.16 743.88 -430.17 741.93 -422.34 739.05L-418.91 669.65L-397.31 729.76C-393.58 728.37 -389.7 726.91 -385.65 725.42L-392.36 638.59L-372.01 720.43C-369.72 719.57 -367.43 718.76 -365.08 717.89C-362.47 716.93 -359.86 715.97 -357.19 715L-343.44 709.99L-327.91 578.03L-305.96 696.42C-303.14 695.38 -300.36 694.39 -297.75 693.43C-294.34 692.2 -291.08 691.04 -288.04 689.96C-283.29 688.27 -278.97 686.75 -275.29 685.42C-270.49 683.72 -266.7 682.38 -264.24 681.55L-238.08 561.92L-255.61 677.11C-251.14 674.17 -245.94 669.96 -239.91 664.91L-198.29 532.95L-224.2 651.48C-216.68 645.01 -208.4 637.93 -199.52 630.72L-162.84 521.32L-177.97 614.12C-173.43 610.84 -168.78 607.59 -164 604.45L-163.95 604.39C-150.69 595.7 -136.81 587.83 -122.35 581.89C-119.28 580.59 -116.14 579.39 -112.99 578.3C-15.3103 544.29 82.1897 550.03 82.1897 550.03C82.1897 550.03 -0.030304 508.97 -79.5503 494.25C-123.39 486.13 -237.3 500.02 -272.93 511.56C-308.61 523.11 -394.55 594.28 -405.49 604.9C-416.49 615.47 -479.03 713.55 -479.03 713.55L-478.11 753.38L-478.1 753.37Z" fill="#22466B"/>
<path d="M-286.191 986.58C-286.191 986.58 -271.991 963.61 -261.881 950.04C-260.691 948.43 -257.011 944.33 -251.421 938.21L-249.251 835.37L-241.971 928.01C-236.921 922.66 -231.121 916.45 -224.681 909.69V909.63L-232.191 787.19L-213.441 897.78C-208.541 892.57 -203.391 887.14 -198.061 881.46L-212.191 759.02L-188.661 871.6C-186.331 869.13 -183.951 866.59 -181.521 864.04C-179.181 861.62 -176.801 859.08 -174.411 856.6C-167.591 849.43 -160.641 842.07 -153.631 834.71L-163.721 678.44L-135.841 816.02C-133.511 813.55 -131.171 811.07 -128.891 808.66C-124.071 803.63 -119.361 798.62 -114.741 793.73L-117.111 687.33L-110.301 789.1C-107.541 786.16 -104.921 783.41 -102.261 780.55H-102.211L-92.6608 582.74L-81.9607 759.13C-77.9607 754.91 -74.1507 750.84 -70.5407 746.97L-75.2907 610.64L-64.8807 740.95C-62.1707 738.07 -59.6507 735.34 -57.2307 732.74C-47.3907 722.2 -40.1407 714.22 -36.6307 710.09C-34.7607 707.86 -32.7507 705.16 -30.5707 702.1V702.05C-25.9707 695.43 -20.7108 687.01 -15.1407 677.47L-5.51074 567.97L-7.61075 664.28C-4.18076 658.31 -0.740753 652.1 2.67926 645.79L27.6193 553.98L22.2193 609.62C34.9893 585.88 45.7993 566.13 50.6992 560.58C62.2993 547.49 79.4593 551.6 81.9792 552.24C77.5392 550.24 26.1693 527.6 -18.8907 535.86C-40.2507 539.76 -60.1007 546.61 -81.0707 557.81C-81.1207 557.81 -81.1707 557.88 -81.2207 557.89C-106.361 571.31 -133.121 591.07 -166.001 619.46C-226.281 671.48 -290.791 871.52 -297.541 897.61C-298.611 901.56 -299.101 906.3 -299.091 911.64C-299.141 911.7 -299.131 911.76 -299.121 911.81C-299.121 911.843 -299.114 911.88 -299.101 911.92V911.97C-299.051 912.86 -299.071 913.76 -299.031 914.66C-298.391 944.27 -286.221 986.59 -286.221 986.59L-286.191 986.58Z" fill="#6188B5"/>
<path d="M-573.69 389.41C-573.69 389.41 -407.94 360.47 -369.84 363.37C-331.8 366.28 -242.58 383.73 -174.55 408.95C-106.57 434.17 87.1696 551.6 87.1696 551.6C87.1696 551.6 -11.1404 436.08 -21.1704 425.58L-14.6204 462.58L-27.6404 419.4C-35.7704 411.88 -49.4904 399.92 -64.0504 387.9L-46.3104 435.41L-74.5904 379.33C-89.2704 367.59 -103.56 356.84 -112.93 351.54L-79.9304 405.99L-133.92 343.98C-137.85 342.94 -142.32 341.78 -147.24 340.49L-123.13 377.49L-158.48 337.74H-158.53C-167.4 335.58 -177.3 333.27 -187.68 330.89L-159.31 372.93L-197.56 328.68C-223.73 322.88 -252.35 316.93 -277.25 312.02L-238.86 342.8L-287.39 310.13C-314.82 304.92 -336.19 301.54 -342.03 301.89C-348.44 302.29 -362.14 305.29 -378.84 309.52L-316.79 330.73L-388.52 312.02H-388.57C-398.54 314.64 -409.15 317.57 -419.68 320.6L-375.71 330.2L-425.55 322.27L-425.65 322.29C-433.51 324.63 -441.28 326.9 -448.58 329.15L-401.22 331.67L-491.36 343.79H-491.41C-526.1 358.91 -573.67 389.42 -573.67 389.42L-573.69 389.41Z" fill="#22466B"/>
<path d="M-537.58 401.36L-473.29 375.11L-520.02 407.05C-501.57 413.01 -480.62 419.68 -460.91 425.62H-460.86L-425.66 376.74L-450.83 428.64C-443.42 430.91 -436.31 432.97 -429.71 434.81L-395.35 364.84L-384.37 444.96C-364.46 448.18 -344.6 452.25 -315.36 460.2L-252.79 381.65L-302.38 463.8C-291.5 466.88 -279.44 470.44 -265.72 474.65L-200.74 389.51L-253.28 478.51C-239.46 482.75 -224.11 487.57 -206.94 493.12C-206.88 493.16 -206.83 493.15 -206.72 493.19L-68.7099 447.19L-154.1 496.58C-137.71 496.84 -118.55 497.34 -97.5999 498.96L-52.2999 473.23L-83.8999 500.17C-32.3399 505.32 28.55 518.15 87.0601 551.53C82.3901 547.51 -67.5499 418.42 -122.69 393.66C-178.64 368.52 -326.14 332.4 -361.89 333.46C-397.59 334.56 -573.67 389.42 -573.67 389.42C-573.67 389.42 -558.87 394.44 -537.56 401.37L-537.58 401.36Z" fill="#6188B5"/>
<path d="M753.98 654.58C753.98 654.58 612.02 562.92 575.65 550.69C539.33 538.49 449.98 519.7 377.2 516.38C304.45 513.09 79.3096 545.85 79.3096 545.85C79.3096 545.85 215.45 477.51 228.84 471.72L208.29 503.37L237.24 468.54C247.7 464.77 265.07 459.08 283.25 453.66L248.24 490.65L296.35 449.86C314.52 444.75 331.94 440.4 342.68 439.17L290.85 476.61L365.06 440.4C369.1 440.97 373.69 441.65 378.75 442.39L341.97 467.17L390.22 444.24L390.26 444.27C399.31 445.73 409.37 447.48 419.9 449.34L377.2 477.11L429.9 451.16C456.37 456.04 485.17 461.75 510.13 466.95L462.57 480.38L520.25 469.16C547.66 475.08 568.75 480.32 574.01 482.93C579.78 485.81 591.28 493.95 605.07 504.39L539.38 499.71L613.04 510.49L613.08 510.52C621.28 516.84 629.94 523.7 638.5 530.62L594.07 522.29L643.27 534.47L643.36 534.53C649.71 539.77 656.01 544.91 661.88 549.84L617.09 533.63L695.71 580.13L695.75 580.16C721.92 607.71 753.97 654.55 753.97 654.55L753.98 654.58Z" fill="#22466B"/>
<path d="M715.91 651.49L666.73 602.04L697.44 649.88C678.05 648.16 656.06 646.14 635.51 643.92L635.47 643.89L622.05 584.91L625.01 642.76C617.27 641.96 609.88 641.08 603.06 640.2L598.68 562.04L557.16 631.84C537.48 627.02 517.53 623.01 487.38 618.92L460.27 521.78L473.97 617.17C462.71 615.76 450.15 614.32 435.82 612.85L409.06 508.67L422.81 611.55C408.36 610.06 392.28 608.51 374.24 606.93C374.17 606.95 374.12 606.92 374.01 606.9L264.38 510.32L324.02 589.42C308.76 583.25 290.84 576.21 270.83 569.5L239.01 527.96L257.68 565.25C207.98 549.83 146.65 537.85 79.46 545.82C85.35 543.93 274.56 483.25 335.25 481.94C396.84 480.59 547.39 504.93 580.04 519.92C612.62 534.92 753.99 654.58 753.99 654.58C753.99 654.58 738.33 653.43 715.92 651.49H715.91Z" fill="#6188B5"/>
<path d="M122.22 527.27C122.22 527.27 191.39 534.68 219.5 562.02C260.76 602.06 331.87 725.72 340.33 826.54C343.1 859.96 333.06 960.51 333.06 960.51C333.06 960.51 352.2 929.59 368.94 900.57C367.9 894.54 366.28 886.11 364.12 880.27C360.5 870.54 351.79 851.75 351.29 850.57C352.13 851.82 365.92 872.3 369.16 881.85C370.45 885.67 371.85 889.71 373.1 893.25C376.18 887.94 379.04 882.78 381.61 878C378.5 872.23 372.61 861.08 370.43 854.24C367.46 844.98 355.33 824.34 354.6 823.04C355.73 823.97 369.8 835.81 375.97 842.7C380.33 847.58 386.23 857.12 389.51 862.67C391.2 859.02 392.42 856.07 393 854.05C393.84 851.03 394.05 845.39 393.73 837.89C389.53 831.8 382.44 821.55 378.59 816.3C373.06 808.72 341.26 770.53 339.3 768.13C341.65 770.38 378.86 806.39 384.49 812.87C386.72 815.45 389.84 819.39 392.74 823.27C392.39 819.43 391.99 815.37 391.48 811.14V811.08C386.62 804.85 379.26 795.7 373.61 789.83C364.86 780.91 346.53 764.57 344.06 762.43C347.47 764.67 378.33 785.3 384.09 792.56C385.89 794.85 388.01 797.48 390.07 799.94C387.91 783.89 385.03 766.55 381.85 751.01C374.13 739.69 361.68 721.75 356.33 716.61C348.58 709.16 307.69 669.3 305.13 666.82C307.88 668.81 351.6 701.13 358.98 706.79C362.97 709.83 370.17 718.64 376.14 726.4C373.57 716.82 370.97 709.46 368.56 705.6C364.59 699.24 350.25 681.51 331.95 659.91L331.9 659.85C321.41 652.91 308.92 644.67 305.94 643.01C301.49 640.57 289.12 635.05 284.81 633.11C289.68 634.68 305.28 639.93 313.11 642.39C314.64 642.89 316.66 643.69 318.84 644.66C282.52 602.87 237.81 554.38 224.14 546.48C201.25 533.36 145.32 528.95 122.22 527.24V527.27Z" fill="#22466B"/>
<path d="M78 542.82C78 542.82 88.7 600.93 93.44 606.04C95.78 608.51 119 637.72 143.83 669.71C146.7 658.4 156.92 593.94 156.47 580.95C157.09 595.11 151.81 666.74 149.27 676.74C152.39 680.79 155.55 684.91 158.67 688.96C162.14 677.78 171.87 646.67 174.2 639.22C176.99 630.13 187.88 578.6 187.88 578.6C187.88 578.6 179.9 642.54 178.09 649.23C176.66 654.66 170.49 688.74 168.17 701.45C173.55 708.47 178.67 715.26 183.31 721.54C186.79 715.96 191.04 707.76 193.1 698.91C196.75 683.09 210.18 646.46 210.18 646.46C210.18 646.46 201.45 682.05 199.54 691.51C197.63 700.97 199.78 717.29 199.78 717.29L228.56 606.59C228.56 606.59 205.22 735.9 199.86 744.35C201.85 747.31 203.48 749.75 204.63 751.63C206.82 755.21 210.09 760.98 214.09 768.23C215.99 760.49 237.53 723.34 244.52 711.63C240.59 718.8 231.88 734.87 228.27 743.82C223.56 755.5 220.61 780.28 220.61 780.28C222.73 784.19 225.01 788.37 227.34 792.73C229.88 782.79 276.1 687.06 280.89 677.82C276.01 688.06 237.57 791.79 234.69 806.48C238.72 814.12 242.96 822.1 247.15 830.13C254.34 820.43 286.65 733.25 292.93 717.08C290.46 723.69 287.47 732.28 286.25 738.11C284.01 748.78 256.89 833.6 252.12 839.52C255.53 846.02 258.88 852.53 262.14 858.75C271.34 837.04 293.3 797.58 300.36 785.27C296.24 792.98 287.28 809.99 284.6 816.21C281.2 823.95 269.65 855.11 268.54 858C269.5 856.1 276.42 841.84 282.64 831.32C288.86 820.75 316.69 775.8 320.11 770.23C317.31 775.22 297.62 810.5 292.98 825.95C289.05 838.99 278.36 869.13 273.96 881.43C276.75 886.8 279.28 891.72 281.49 896.07C287.41 887.59 298.03 872.26 299.09 870.63C300.5 868.47 326.27 828.1 327.91 825.56C327.11 827.52 314.43 859.25 313.05 866.34C311.95 872.06 295.54 898.1 288.29 909.35C289.02 910.65 289.58 911.84 290.05 912.74C292.21 917.09 295.58 921.88 299.44 926.73C304.97 922.78 312.05 917.4 316.38 912.74C323.66 904.98 334.89 869.27 336.77 863.47C335.81 868.26 330.67 892.5 327.59 902.14C325.07 910.03 312.74 926.74 306.44 934.81C319 948.54 333.06 960.49 333.06 960.49C333.06 960.49 351.46 864.69 339.5 791.73C327.54 718.77 274.97 614.78 224.73 563.14C195.02 532.57 136.99 526.59 122.22 527.24C107.45 527.9 78 542.79 78 542.79V542.82Z" fill="#6188B5"/>
<path d="M117.559 7.3598C117.769 8.5998 116.799 12.3298 114.929 17.9898C95.5593 18.1698 50.0193 19.1998 22.7993 24.1898C-12.5807 30.7198 -42.1107 42.1998 -42.1107 42.1998C-42.1107 42.1998 13.2793 31.3998 53.3293 33.7598C79.7193 35.3098 98.3093 36.6198 107.909 37.3498C106.339 41.5698 104.629 46.1098 102.789 50.8798C81.9593 50.8398 34.0193 51.3498 12.9893 56.5498C-13.2207 63.0898 -54.6207 76.4398 -57.9907 77.5498C-53.5607 77.0098 4.53928 70.2198 39.2693 70.4698C66.2093 70.6198 85.6993 72.5998 93.8893 73.5898C90.0093 83.2698 85.9493 93.5198 81.8393 103.8C64.4193 105.1 23.6993 108.36 6.23927 111.58C-15.6207 115.6 -68.4607 129.64 -71.4707 130.43C-68.6807 130.67 -23.5307 133.99 5.34927 136.71C28.3293 138.89 53.1993 147.24 63.2093 150.96C53.2293 176.53 45.2293 198.03 42.8393 207.77C42.2093 210.32 41.8393 213.34 41.6693 216.73C26.6093 220.89 -10.8707 231.21 -22.0907 232.33C-35.1807 233.59 -63.5907 234.98 -67.8407 235.25C-62.0207 235.78 -13.9407 239.75 6.26926 237.02C21.7693 234.95 35.4293 233.15 41.9193 232.34C42.4993 240.37 43.6593 249.46 45.1593 259.03L-44.8407 291.68L47.7593 273.95C50.0493 286.32 52.7893 299.03 55.4893 311.04L0.449265 394.55L57.9593 321.84C62.5193 341.65 66.7693 358.61 68.5493 367.63C73.9093 394.95 87.0693 555.03 87.0693 555.03C87.0693 555.03 -9.40073 428.75 -38.4307 384.46C-67.4307 340.22 -96.8707 201.88 -95.1007 160.35C-93.4207 118.81 -61.9607 22.7898 -26.0607 -24.0302C-2.21074 -55.0502 47.5793 -88.2002 47.5793 -88.2002C47.5793 -88.2002 54.1593 -79.9102 63.2493 -68.2002L12.1793 -40.3702L69.7893 -59.7502C74.2493 -53.9802 79.0393 -47.7202 83.7893 -41.4302L-20.8707 1.0798C-20.8707 1.0798 81.0493 -7.8702 107.089 -9.8602C113.109 -1.3202 117.179 5.1498 117.559 7.3598Z" fill="#6188B5"/>
<path d="M77.0996 552.72C79.6696 550.16 120.69 508.89 169.06 473.35C204.66 447.13 244.13 423.23 273.87 408L204.41 408.45L283.99 403.03C295.59 397.4 305.15 393.55 311.61 391.92C314.43 391.23 317.62 390.34 321.09 389.36L245.81 366.42L340.85 383.42C355.26 379.11 372.34 374.18 391.11 369.91L336.65 334.29L442.41 361.46H442.46C447.75 360.89 453.05 360.5 458.49 360.26C475.73 359.44 494.45 362.19 511.67 365.43L447.85 315.1L523.97 367.97H524.02C540.82 371.48 555.16 374.86 563.8 374.95C564.91 374.95 565.98 375 567.09 374.99L486.96 318.37L584.05 375.2C627.21 375.64 670.04 375.67 670.04 375.67C670.04 375.67 515.8 289.35 471.6 290.14C427.46 290.97 299.01 323.46 245.56 355.25C192.9 386.62 80.5796 547.68 77.0996 552.72Z" fill="#22466B"/>
<path d="M77.0098 552.85C77.0098 552.85 208.61 373.93 245.57 355.25C282.53 336.63 436.51 289.07 471.61 290.14C506.76 291.26 670.05 375.67 670.05 375.67C670.05 375.67 659.95 362.87 644.76 344.65L598.68 326.58L636.54 334.82C626.02 322.23 613.75 307.94 601.12 293.85L508.6 270.68L584.48 275.62C573.74 264.17 563.18 253.37 553.49 244.43C533.49 248.61 503.98 255.02 496.14 257.8C484.65 261.86 457.2 276.18 453.87 277.87L529.59 225.01C528.28 224.2 527.09 223.49 525.91 222.84C516.87 217.95 502.88 214.7 486.24 212.73L399.24 275.81L450.39 210.29C402.01 208.9 347.02 213.55 324.88 216.96C310.55 235.74 274.72 283.43 270.85 293.7C266.34 305.76 261.58 320.8 260.99 322.65L269.98 249.23C231.13 280.02 183.86 324.86 171.33 342.23C151.94 368.96 77.0098 552.85 77.0098 552.85Z" fill="#6188B5"/>
</g>
</g>
<defs>
<linearGradient id="paint0_linear_129_3087" x1="713.059" y1="1030.26" x2="713.059" y2="424.31" gradientUnits="userSpaceOnUse">
<stop stop-color="#F9C5D0"/>
<stop offset="1" stop-color="#FFECD7"/>
</linearGradient>
<linearGradient id="paint1_linear_129_3087" x1="1248.9" y1="1500.68" x2="-327.67" y2="1500.68" gradientUnits="userSpaceOnUse">
<stop stop-color="#F9C5D0"/>
<stop offset="1" stop-color="#FFECD7"/>
</linearGradient>
<linearGradient id="paint2_linear_129_3087" x1="390.219" y1="805.029" x2="390.219" y2="328.579" gradientUnits="userSpaceOnUse">
<stop stop-color="#F9C5D0"/>
<stop offset="1" stop-color="#FFECD7"/>
</linearGradient>
<linearGradient id="paint3_linear_129_3087" x1="964.17" y1="708.2" x2="964.17" y2="397.21" gradientUnits="userSpaceOnUse">
<stop stop-color="#F9C5D0"/>
<stop offset="1" stop-color="#FFECD7"/>
</linearGradient>
<clipPath id="clip0_129_3087">
<rect width="1080" height="1080" fill="white"/>
</clipPath>
<clipPath id="clip1_129_3087">
<rect width="1080" height="2340" fill="white"/>
</clipPath>
</defs>
</svg>
