<svg width="1080" height="1080" viewBox="0 0 1080 1080" fill="none" xmlns="http://www.w3.org/2000/svg">
<g clip-path="url(#clip0_129_2422)">
<rect width="1080" height="1080" fill="white"/>
<g clip-path="url(#clip1_129_2422)">
<path d="M1080 0H0V2340H1080V0Z" fill="white"/>
<path d="M290.66 2408.55C608.24 2408.55 865.69 1928.98 865.69 1337.41C865.69 745.836 608.24 266.27 290.66 266.27C-26.9204 266.27 -284.37 745.836 -284.37 1337.41C-284.37 1928.98 -26.9204 2408.55 290.66 2408.55Z" fill="#D2E9FF"/>
<path d="M787.489 2383.63C1380.53 2383.63 1861.28 2002.4 1861.28 1532.13C1861.28 1061.86 1380.53 680.63 787.489 680.63C194.451 680.63 -286.301 1061.86 -286.301 1532.13C-286.301 2002.4 194.451 2383.63 787.489 2383.63Z" fill="#B9DAFF"/>
<path d="M927.19 364.93H899.51V653.39H927.19V364.93Z" fill="#B9DAFF"/>
<path d="M927.19 297.291H899.51V340.561H927.19V297.291Z" fill="#B9DAFF"/>
<path d="M685.81 364.93H658.13V653.39H685.81V364.93Z" fill="#B9DAFF"/>
<path d="M685.81 297.291H658.13V340.561H685.81V297.291Z" fill="#B9DAFF"/>
<path d="M691.189 653.39H652.749V669.99H691.189V653.39Z" fill="#6188B5"/>
<path d="M697.68 670H646.26V691.891H697.68V670Z" fill="#6188B5"/>
<path d="M709.29 691.88H634.64V699.18H709.29V691.88Z" fill="#6188B5"/>
<path d="M1006.32 224.34C1006.32 224.34 906.609 257.26 792.649 257.26C678.689 257.26 578.979 224.34 578.979 224.34C578.979 224.34 577.399 251.19 596.389 277.53H988.899C1007.89 251.19 1006.31 224.34 1006.31 224.34H1006.32Z" fill="url(#paint0_linear_129_2422)"/>
<path d="M833.52 291.38H751.8V346.16H833.52V291.38Z" fill="url(#paint1_linear_129_2422)"/>
<path d="M620.14 297.29H751.799V291.38H833.52V297.29H965.169L972.299 277.53H613.02L620.14 297.29Z" fill="#B9DAFF"/>
<path d="M833.52 340.561V346.161H751.799V340.561H613.02L620.14 364.931H965.169L972.299 340.561H833.52Z" fill="#B9DAFF"/>
<path d="M932.57 653.39H894.13V669.99H932.57V653.39Z" fill="#6188B5"/>
<path d="M939.06 670H887.64V691.891H939.06V670Z" fill="#6188B5"/>
<path d="M950.669 691.88H876.02V699.18H950.669V691.88Z" fill="#6188B5"/>
<path d="M701.2 373.671C699.03 374.301 696.79 374.891 694.47 375.431C695.7 381.551 702.53 385.201 708.27 382.941C710.47 382.061 712.6 381.161 714.69 380.241C712.48 374.581 707 371.901 701.2 373.671Z" fill="url(#paint2_linear_129_2422)"/>
<path d="M719.09 381.95C717.04 382.94 714.91 383.97 712.77 384.88C715.07 390.61 722.089 393.16 727.479 390.05C729.519 388.91 731.509 387.78 733.479 386.55C732.019 383.92 729.799 382.02 727.219 381.27C724.699 380.39 721.79 380.66 719.08 381.95H719.09Z" fill="url(#paint3_linear_129_2422)"/>
<path d="M738.07 387.74C736.14 388.98 734.18 390.18 732.17 391.39C735.15 396.81 742.29 398.45 747.32 394.85C749.22 393.53 751.09 392.16 752.93 390.75C749.5 385.75 743.2 384.41 738.07 387.75V387.74Z" fill="url(#paint4_linear_129_2422)"/>
<path d="M757.629 391.49C755.819 392.92 753.989 394.3 752.109 395.7C755.599 400.8 762.799 401.76 767.489 397.73C769.269 396.23 771.009 394.73 772.719 393.16C768.869 388.46 762.419 387.7 757.629 391.5V391.49Z" fill="url(#paint5_linear_129_2422)"/>
<path d="M777.469 393.5L772.329 398.17C776.239 402.93 783.459 403.31 787.809 398.92L792.669 393.97C790.569 391.72 787.879 390.59 785.169 390.54C782.459 390.42 779.709 391.43 777.479 393.52L777.469 393.5Z" fill="url(#paint6_linear_129_2422)"/>
<path d="M797.419 393.89L792.659 398.98C794.799 401.16 797.659 402.24 800.509 402.18C803.349 402.05 806.149 400.85 808.149 398.51L812.599 393.16C808.059 389.09 801.549 389.43 797.419 393.89Z" fill="url(#paint7_linear_129_2422)"/>
<path d="M817.339 392.73C815.929 394.56 814.479 396.4 812.999 398.16C817.609 402.28 824.809 401.44 828.409 396.46C829.769 394.57 831.099 392.64 832.389 390.74C827.529 387.09 821.099 387.95 817.339 392.72V392.73Z" fill="url(#paint8_linear_129_2422)"/>
<path d="M837.059 389.92C835.819 391.88 834.529 393.81 833.199 395.7C838.149 399.43 845.299 397.92 848.419 392.62C849.599 390.59 850.729 388.56 851.819 386.54C846.629 383.38 840.369 384.82 837.049 389.91L837.059 389.92Z" fill="url(#paint9_linear_129_2422)"/>
<path d="M856.389 385.24C855.359 387.29 854.289 389.391 853.149 391.391C855.809 393.021 858.869 393.18 861.629 392.38C864.349 391.44 866.759 389.54 867.989 386.65C868.919 384.49 869.829 382.391 870.629 380.231C865.089 377.711 859.179 379.87 856.389 385.24Z" fill="url(#paint10_linear_129_2422)"/>
<path d="M874.959 378.37C874.209 380.51 873.409 382.68 872.539 384.88C878.199 387.39 885.079 384.03 886.629 378.02C887.199 375.71 887.689 373.45 888.099 371.23C882.239 369.77 876.929 372.6 874.959 378.38V378.37Z" fill="url(#paint11_linear_129_2422)"/>
<path d="M828.199 297.311H757.119V340.221H828.199V297.311Z" fill="#B9DAFF"/>
<path d="M969.809 710.881C973.83 710.881 977.089 703.865 977.089 695.211C977.089 686.556 973.83 679.541 969.809 679.541C965.789 679.541 962.529 686.556 962.529 695.211C962.529 703.865 965.789 710.881 969.809 710.881Z" fill="#B9DAFF"/>
<path d="M957.499 704.841C961.519 704.841 964.779 697.825 964.779 689.17C964.779 680.516 961.519 673.5 957.499 673.5C953.478 673.5 950.219 680.516 950.219 689.17C950.219 697.825 953.478 704.841 957.499 704.841Z" fill="#B9DAFF"/>
<path d="M944.579 714.36C948.599 714.36 951.859 707.345 951.859 698.69C951.859 690.036 948.599 683.021 944.579 683.021C940.558 683.021 937.299 690.036 937.299 698.69C937.299 707.345 940.558 714.36 944.579 714.36Z" fill="#B9DAFF"/>
<path d="M934.659 711.23C937.487 711.23 939.779 706.292 939.779 700.2C939.779 694.109 937.487 689.17 934.659 689.17C931.831 689.17 929.539 694.109 929.539 700.2C929.539 706.292 931.831 711.23 934.659 711.23Z" fill="#B9DAFF"/>
<path d="M878.669 720.52C882.689 720.52 885.949 713.504 885.949 704.85C885.949 696.196 882.689 689.18 878.669 689.18C874.648 689.18 871.389 696.196 871.389 704.85C871.389 713.504 874.648 720.52 878.669 720.52Z" fill="#B9DAFF"/>
<path d="M888.649 715.41C891.355 715.41 893.549 710.682 893.549 704.85C893.549 699.018 891.355 694.29 888.649 694.29C885.943 694.29 883.749 699.018 883.749 704.85C883.749 710.682 885.943 715.41 888.649 715.41Z" fill="#B9DAFF"/>
<path d="M896.249 715.4C899.419 715.4 901.989 709.866 901.989 703.04C901.989 696.214 899.419 690.68 896.249 690.68C893.079 690.68 890.509 696.214 890.509 703.04C890.509 709.866 893.079 715.4 896.249 715.4Z" fill="#B9DAFF"/>
<path d="M345.719 807.01C351.711 807.01 356.569 790.189 356.569 769.44C356.569 748.691 351.711 731.87 345.719 731.87C339.727 731.87 334.869 748.691 334.869 769.44C334.869 790.189 339.727 807.01 345.719 807.01Z" fill="#B9DAFF"/>
<path d="M327.359 792.54C333.351 792.54 338.209 775.72 338.209 754.97C338.209 734.221 333.351 717.4 327.359 717.4C321.366 717.4 316.509 734.221 316.509 754.97C316.509 775.72 321.366 792.54 327.359 792.54Z" fill="#B9DAFF"/>
<path d="M308.089 815.36C314.082 815.36 318.939 798.54 318.939 777.79C318.939 757.041 314.082 740.22 308.089 740.22C302.097 740.22 297.239 757.041 297.239 777.79C297.239 798.54 302.097 815.36 308.089 815.36Z" fill="#B9DAFF"/>
<path d="M293.299 807.85C297.519 807.85 300.939 796.013 300.939 781.41C300.939 766.808 297.519 754.97 293.299 754.97C289.08 754.97 285.659 766.808 285.659 781.41C285.659 796.013 289.08 807.85 293.299 807.85Z" fill="#B9DAFF"/>
<path d="M624.529 715.64C628.854 715.64 632.359 708.625 632.359 699.97C632.359 691.316 628.854 684.3 624.529 684.3C620.205 684.3 616.699 691.316 616.699 699.97C616.699 708.625 620.205 715.64 624.529 715.64Z" fill="#B9DAFF"/>
<path d="M637.779 709.6C642.104 709.6 645.609 702.585 645.609 693.93C645.609 685.276 642.104 678.26 637.779 678.26C633.455 678.26 629.949 685.276 629.949 693.93C629.949 702.585 633.455 709.6 637.779 709.6Z" fill="#B9DAFF"/>
<path d="M709.22 719.12C713.544 719.12 717.05 712.105 717.05 703.45C717.05 694.796 713.544 687.78 709.22 687.78C704.895 687.78 701.39 694.796 701.39 703.45C701.39 712.105 704.895 719.12 709.22 719.12Z" fill="#B9DAFF"/>
<path d="M698.34 712.67C700.886 712.67 702.95 708.543 702.95 703.451C702.95 698.358 700.886 694.23 698.34 694.23C695.794 694.23 693.729 698.358 693.729 703.451C693.729 708.543 695.794 712.67 698.34 712.67Z" fill="#B9DAFF"/>
<path d="M651.68 719.12C656.004 719.12 659.51 712.105 659.51 703.45C659.51 694.796 656.004 687.78 651.68 687.78C647.355 687.78 643.85 694.796 643.85 703.45C643.85 712.105 647.355 719.12 651.68 719.12Z" fill="#B9DAFF"/>
<path d="M662.36 715.99C665.403 715.99 667.87 711.052 667.87 704.96C667.87 698.869 665.403 693.93 662.36 693.93C659.317 693.93 656.85 698.869 656.85 704.96C656.85 711.052 659.317 715.99 662.36 715.99Z" fill="#B9DAFF"/>
<path d="M684.24 3768.43C1464.24 3768.43 2096.55 3136.12 2096.55 2356.12C2096.55 1576.12 1464.24 943.81 684.24 943.81C-95.7575 943.81 -728.07 1576.12 -728.07 2356.12C-728.07 3136.12 -95.7575 3768.43 684.24 3768.43Z" fill="#6188B5"/>
<path d="M1065.7 1018.88C1072.27 1018.88 1077.59 1006.91 1077.59 992.15C1077.59 977.387 1072.27 965.42 1065.7 965.42C1059.13 965.42 1053.81 977.387 1053.81 992.15C1053.81 1006.91 1059.13 1018.88 1065.7 1018.88Z" fill="#6188B5"/>
<path d="M1045.57 1021.17C1052.14 1021.17 1057.46 1009.2 1057.46 994.44C1057.46 979.677 1052.14 967.71 1045.57 967.71C1039 967.71 1033.68 979.677 1033.68 994.44C1033.68 1009.2 1039 1021.17 1045.57 1021.17Z" fill="#6188B5"/>
<path d="M1030.21 1019.08C1034.83 1019.08 1038.58 1010.66 1038.58 1000.27C1038.58 989.881 1034.83 981.46 1030.21 981.46C1025.59 981.46 1021.84 989.881 1021.84 1000.27C1021.84 1010.66 1025.59 1019.08 1030.21 1019.08Z" fill="#6188B5"/>
<path d="M775.93 977.92C782.033 977.92 786.98 967.842 786.98 955.41C786.98 942.978 782.033 932.9 775.93 932.9C769.827 932.9 764.88 942.978 764.88 955.41C764.88 967.842 769.827 977.92 775.93 977.92Z" fill="#6188B5"/>
<path d="M794.63 969.25C800.733 969.25 805.68 959.172 805.68 946.74C805.68 934.308 800.733 924.23 794.63 924.23C788.527 924.23 783.58 934.308 783.58 946.74C783.58 959.172 788.527 969.25 794.63 969.25Z" fill="#6188B5"/>
<path d="M814.239 982.92C820.342 982.92 825.289 972.842 825.289 960.41C825.289 947.978 820.342 937.9 814.239 937.9C808.137 937.9 803.189 947.978 803.189 960.41C803.189 972.842 808.137 982.92 814.239 982.92Z" fill="#6188B5"/>
<path d="M829.31 978.42C833.607 978.42 837.09 971.328 837.09 962.58C837.09 953.832 833.607 946.74 829.31 946.74C825.013 946.74 821.53 953.832 821.53 962.58C821.53 971.328 825.013 978.42 829.31 978.42Z" fill="#6188B5"/>
<path d="M129.06 1089.83C133.362 1089.83 136.85 1081.84 136.85 1071.99C136.85 1062.14 133.362 1054.15 129.06 1054.15C124.757 1054.15 121.27 1062.14 121.27 1071.99C121.27 1081.84 124.757 1089.83 129.06 1089.83Z" fill="#6188B5"/>
<path d="M115.879 1082.96C120.181 1082.96 123.669 1074.97 123.669 1065.12C123.669 1055.27 120.181 1047.28 115.879 1047.28C111.577 1047.28 108.089 1055.27 108.089 1065.12C108.089 1074.97 111.577 1082.96 115.879 1082.96Z" fill="#6188B5"/>
<path d="M91.4292 1090.22C94.4557 1090.22 96.9092 1084.6 96.9092 1077.67C96.9092 1070.74 94.4557 1065.12 91.4292 1065.12C88.4027 1065.12 85.9492 1070.74 85.9492 1077.67C85.9492 1084.6 88.4027 1090.22 91.4292 1090.22Z" fill="#6188B5"/>
<path d="M433.8 62.8403C427.24 85.3803 409.43 102.29 388.39 105.65C360.61 110.09 330.84 90.3403 322.77 58.1903C314.25 68.1303 289.29 94.6303 261.39 91.6103C223.76 87.5303 185.88 30.2903 193.86 -51.0197C174.62 -97.9197 174.39 -148.63 199.48 -174.88C235.1 -212.16 329.08 -207.8 395.82 -129.15C419.81 -142.15 443.52 -133.8 448.58 -121.07C452.25 -111.85 446.79 -98.6597 436.24 -88.7297C508.6 -71.6397 541.28 -11.6397 528.65 22.1403C518.86 48.3403 479.1 66.0503 433.81 62.8403H433.8Z" fill="#F9C5D0"/>
<path d="M443.38 -86.8601C463.16 -98.5501 508.78 -69.2601 528.03 -30.0601C533.24 -19.4401 544.53 3.51992 536.43 28.1799C526.7 57.8199 491.52 78.3999 448.44 79.1699C445.56 85.5299 438.8 98.0999 424.89 108.2C421.16 110.91 404.6 122.38 387.75 121.63C362.73 120.51 337.55 92.4599 330.73 52.0499C336.64 57.1599 350.63 67.7499 364.17 64.4299C383.51 59.6899 399.17 27.2599 389.81 -14.8101C389.42 -15.7701 382.61 -33.5501 393.8 -48.5301C402.26 -59.8601 417.43 -64.7601 431.69 -60.6201C433.14 -78.1101 439.03 -84.3101 443.38 -86.8701V-86.8601Z" fill="#FFDEE4"/>
<path d="M315.89 70.41C313.44 74.32 302.57 91.71 282.88 94.97C259.84 98.78 242.12 80.35 235 72.93C219.33 56.62 212.1 34.91 215.42 32.66C218.58 30.52 226.6 49.06 246.44 56.83C279.7 69.85 315.8 40.71 322.59 50.47C325.63 54.84 320.28 63.41 315.9 70.41H315.89Z" fill="#FFDEE4"/>
<path d="M397.9 107.96C398.76 91.1803 407.33 80.0303 410.24 76.5503C412.42 78.6803 422.64 89.0903 422.95 105.48C423.34 125.92 407.98 138.12 406.27 139.42C403.77 135.52 397.07 123.98 397.89 107.95L397.9 107.96Z" fill="#FFDEE4"/>
<path d="M414.28 106.93C405.69 92.4902 406.64 78.4602 407.13 73.9502C410.13 74.5102 424.41 77.5102 433.75 90.9802C445.41 107.77 439.39 126.44 438.7 128.47C434.46 126.62 422.48 120.72 414.28 106.93Z" fill="#FFDEE4"/>
<path d="M441.06 108.36C429.85 102.01 425.15 92.2999 423.76 89.0999C425.97 88.3299 436.62 84.8999 447.97 90.3199C462.12 97.0799 465.21 111.8 465.52 113.42C461.99 113.8 451.77 114.43 441.06 108.36Z" fill="#FFDEE4"/>
<path d="M404.55 19.7499C391.71 20.8199 382.35 15.4499 379.41 13.5899C380.8 11.7099 387.67 2.87992 400.1 0.959919C415.6 -1.43008 426.45 8.98992 427.61 10.1499C424.91 12.4499 416.81 18.7299 404.55 19.7499Z" fill="#F9C5D0"/>
<path d="M247.71 73.09C251.22 60.69 259.53 53.81 262.3 51.71C263.57 53.68 269.43 63.21 266.87 75.52C263.67 90.87 250.11 97.37 248.61 98.06C247.4 94.72 244.36 84.94 247.71 73.1V73.09Z" fill="#F9C5D0"/>
<path d="M264.33 70.5301C262.09 61.2001 264.97 53.7101 266 51.3301C267.54 52.1401 274.82 56.1901 277.64 65.1101C281.16 76.2401 274.73 85.4001 274 86.3901C272 84.6601 266.46 79.4201 264.32 70.5201L264.33 70.5301Z" fill="#F9C5D0"/>
<path d="M276.83 64.9503C269.07 59.3103 266.41 51.7303 265.66 49.2503C267.36 48.8703 275.53 47.2303 283.46 52.1903C293.36 58.3803 294.4 69.5303 294.5 70.7503C291.86 70.7303 284.24 70.3403 276.84 64.9503H276.83Z" fill="#F9C5D0"/>
<path d="M393.43 29.7602C386.35 26.4202 383.06 20.7502 382.07 18.8802C383.37 18.3202 389.67 15.7502 396.79 18.5202C405.67 21.9702 408.21 30.7502 408.47 31.7102C406.35 32.1002 400.18 32.9502 393.42 29.7602H393.43Z" fill="#F9C5D0"/>
<path d="M333.94 -206.88C335.08 -206.16 254.17 -126.62 227.07 5.09012C201.31 130.28 251.93 167.59 223.79 273.7C185.8 416.91 54.6604 495.67 52.0904 493.3C49.7104 491.11 157.85 419.48 194.58 283.84C221.07 186.01 182.65 157.43 202.22 46.9601C229.64 -107.77 332.67 -207.67 333.95 -206.87L333.94 -206.88Z" fill="#3A4858"/>
<path d="M361.36 428.94C367.13 439.54 383.47 470.6 378.35 510.78C372.48 556.85 339.85 603.49 288.83 619.72C235.21 636.78 189.68 611.21 181.96 606.7C166.21 630.2 138.21 642.18 111.1 637.09C86.6804 632.51 66.4703 614.74 58.2303 590.8C15.9203 598.03 -5.61964 584.19 -12.3296 579.21C-53.3696 548.78 -60.0296 464.24 -9.16965 379.37C-31.3096 388.47 -56.4796 381.36 -69.5996 362.99C-80.9496 347.1 -81.4996 325.26 -70.8896 307.81C-81.1996 294.16 -94.1996 272.56 -97.6896 244.55C-108.34 159.1 -24.9696 57.8401 68.1304 57.7301C113.27 57.6801 148.44 81.4301 167.52 97.5301C181.38 262.35 230.16 325.75 274.06 352.44C294.47 364.85 336.38 383.03 361.36 428.94Z" fill="#F9C5D0"/>
<path d="M150.159 60.8002C180.159 58.4802 222.029 68.5802 238.959 97.8602C257.109 129.25 231.889 157.28 254.409 192.83C268.299 214.76 281.689 210.07 290.559 229.98C306.199 265.04 270.849 293.46 284.219 318.2C298.389 344.42 343.469 322.53 380.619 351.66C423.109 384.99 426.939 462.87 405.439 476.29C390.009 485.92 369.289 457.5 342.339 467.38C316.299 476.93 321.559 508.63 296.649 521.52C263.319 538.76 199.199 510.31 187.469 470.85C177.969 438.86 207.839 416.2 194.199 393.29C180.429 370.18 145.349 385.35 127.189 362.98C103.909 334.3 148.949 293.77 134.959 238.44C120.009 179.33 55.5795 174.03 57.0795 132.69C58.3395 98.0002 105.059 64.2802 150.159 60.8002Z" fill="#FFDEE4"/>
<path d="M351.53 468.39C361.03 478.56 362.73 490.07 363.13 493.81C360.61 493.89 348.53 493.98 338.59 484.74C326.2 473.21 327.77 457.05 327.97 455.29C331.73 456.04 342.46 458.69 351.53 468.4V468.39Z" fill="#FFDEE4"/>
<path d="M317.88 508.97C317.54 519.06 312.5 525.85 310.79 527.97C309.46 526.71 303.21 520.56 302.85 510.72C302.41 498.44 311.51 490.96 312.52 490.15C314.06 492.46 318.21 499.33 317.88 508.97Z" fill="#FFDEE4"/>
<path d="M377.84 458.35C393.89 468.78 399.98 483.6 401.75 488.46C398.4 489.4 382.3 493.52 365.97 484.46C345.6 473.17 342.35 451.06 342.04 448.63C347.31 448.39 362.52 448.38 377.84 458.34V458.35Z" fill="#FFDEE4"/>
<path d="M352.7 332.56C355.7 346.69 351.04 357.85 349.39 361.39C347.1 360.1 336.31 353.71 332.43 340.16C327.59 323.26 337.65 309.73 338.78 308.27C341.72 310.95 349.84 319.07 352.7 332.56Z" fill="#FFDEE4"/>
<path d="M379.32 346.21C366.98 365.18 349.47 372.39 343.72 374.48C342.61 370.52 337.74 351.49 348.45 332.18C361.8 308.1 387.94 304.26 390.81 303.89C391.09 310.12 391.1 328.1 379.32 346.22V346.21Z" fill="#FFDEE4"/>
<path d="M255.17 179.97C238.46 178.36 227.72 169.31 224.38 166.25C226.6 164.17 237.45 154.44 253.82 154.86C274.23 155.39 285.72 171.26 286.94 173.02C282.94 175.34 271.12 181.51 255.17 179.97Z" fill="#FFDEE4"/>
<path d="M254.87 163.58C240.08 171.51 226.12 169.93 221.64 169.24C222.33 166.27 225.97 152.16 239.82 143.44C257.1 132.56 275.46 139.4 277.45 140.18C275.41 144.33 268.99 156.02 254.87 163.59V163.58Z" fill="#FFDEE4"/>
<path d="M257.5 136.92C250.66 147.83 240.76 152.08 237.51 153.32C236.84 151.08 233.9 140.3 239.81 129.22C247.18 115.4 262.01 112.98 263.64 112.74C263.86 116.28 264.03 126.51 257.5 136.92Z" fill="#FFDEE4"/>
<path d="M187.38 377.29C180.7 387.57 171.21 391.47 168.1 392.6C167.5 390.46 164.86 380.14 170.66 369.69C177.89 356.65 192.05 354.56 193.6 354.36C193.75 357.73 193.76 367.48 187.38 377.29Z" fill="#F9C5D0"/>
<path d="M184.03 372.93C204.12 368.67 219.97 375.29 225 377.63C223.17 380.88 214.09 396.22 194.83 401.74C170.81 408.62 151.59 394.32 149.51 392.72C153.32 388.54 164.85 377 184.03 372.93Z" fill="#F9C5D0"/>
<path d="M88.5897 194.68C84.4397 175.08 90.8897 159.61 93.1797 154.71C96.3497 156.49 111.31 165.36 116.7 184.14C123.41 207.57 109.46 226.33 107.9 228.36C103.82 224.64 92.5597 213.39 88.5897 194.68Z" fill="#F9C5D0"/>
<path d="M107.83 210.57C116.13 197.15 128.22 191.86 132.19 190.31C133.02 193.05 136.72 206.24 129.56 219.86C120.63 236.85 102.48 239.94 100.49 240.24C100.19 235.9 99.8996 223.37 107.83 210.56V210.57Z" fill="#F9C5D0"/>
<path d="M110.37 64.5003C122.35 61.6803 131.94 65.4303 134.98 66.7603C133.93 68.7303 128.69 78.0403 117.23 81.6103C102.93 86.0603 91.2202 77.7503 89.9502 76.8203C92.1802 74.2703 98.9302 67.1903 110.37 64.5003Z" fill="#F9C5D0"/>
<path d="M103.15 79.6702C110.46 83.5602 113.64 89.7102 114.58 91.7402C113.17 92.2702 106.39 94.6502 99.0203 91.3702C89.8203 87.2702 87.5904 77.8702 87.3604 76.8402C89.6204 76.5402 96.1704 75.9602 103.15 79.6802V79.6702Z" fill="#F9C5D0"/>
<path d="M202.13 399.54C211.84 403.93 216.44 411.57 217.82 414.1C216.06 414.9 207.54 418.52 197.79 414.91C185.63 410.41 181.98 398.52 181.6 397.21C184.48 396.63 192.85 395.35 202.12 399.54H202.13Z" fill="#F9C5D0"/>
<path d="M212.69 428.29C217.06 433.26 217.71 438.75 217.85 440.54C216.65 440.54 210.91 440.42 206.31 435.88C200.58 430.23 201.55 422.57 201.67 421.73C203.45 422.14 208.51 423.55 212.69 428.29Z" fill="#F9C5D0"/>
<path d="M341.07 488.51C347.62 506.2 343.72 521.5 342.26 526.38C339.06 525.15 323.91 518.94 316.33 502.17C306.87 481.26 317.31 461.87 318.49 459.77C322.8 462.68 334.83 471.62 341.08 488.51H341.07Z" fill="#FFDEE4"/>
<path d="M138.48 371.8C146.34 359.71 157.5 355.13 161.16 353.8C161.86 356.32 164.97 368.45 158.15 380.74C149.64 396.08 133 398.53 131.17 398.76C130.99 394.79 130.98 383.34 138.49 371.8H138.48Z" fill="#FFDEE4"/>
<path d="M112.87 380.25C121.05 374.81 129.27 374.95 131.92 375.11C131.68 376.88 130.35 385.3 122.76 391.16C113.29 398.46 102.22 395.5 101.01 395.15C101.97 392.62 105.06 385.45 112.87 380.25Z" fill="#FFDEE4"/>
<path d="M85.39 191.66C87.67 201.18 84.72 208.82 83.66 211.25C82.09 210.42 74.66 206.28 71.79 197.17C68.21 185.81 74.79 176.46 75.52 175.45C77.56 177.22 83.21 182.57 85.38 191.66H85.39Z" fill="#FFDEE4"/>
<path d="M3.24995 883.7C1.63995 835.18 2.55996 755.33 22.16 660.12C69.06 432.31 175.16 348.31 157.83 197.56C151.91 146.05 129.43 68.0702 43.3 -21.8398C75.11 16.3902 119.15 80.2402 134.43 166.05C167.88 353.82 34.51 483.21 -62.97 724.96C-104.14 827.05 -152.45 982.76 -163.79 1193.6" fill="#3A4858"/>
<path d="M11.7798 524.33C27.8698 519.2 45.4298 523.18 57.2898 534.71C70.4398 547.5 74.4098 567.47 67.1698 584.88C76.9098 585.12 82.8698 588.22 86.4498 590.99C105.58 605.76 107.6 650.08 81.9198 669.58C64.0798 683.13 36.2298 682.17 15.0398 665.82C-6.34015 675.16 -20.6102 672.13 -26.9002 670.1C-59.9302 659.42 -82.2502 608.62 -71.7602 545.15C-69.3802 511.23 -42.7902 489.95 -21.0502 493.07C-6.63015 495.14 5.78985 507.97 11.7798 524.34V524.33Z" fill="#FFDEE4"/>
<path d="M104.2 632.78C87.4602 631.33 76.6202 622.38 73.2402 619.35C75.4402 617.24 86.2102 607.39 102.6 607.66C123.04 607.99 134.69 623.76 135.94 625.51C131.96 627.87 120.18 634.17 104.2 632.79V632.78Z" fill="#FFDEE4"/>
<path d="M80.5102 670.49C74.3302 662.65 73.8002 654.32 73.7402 651.62C75.5502 651.72 84.1902 652.37 90.7402 659.57C98.9102 668.55 96.8202 680.01 96.5702 681.26C93.9302 680.5 86.4102 677.96 80.5102 670.48V670.49Z" fill="#FFDEE4"/>
<path d="M103.74 616.37C89.0103 624.45 75.0203 623.01 70.5303 622.36C71.2003 619.38 74.6903 605.22 88.4803 596.35C105.67 585.29 124.12 591.95 126.12 592.71C124.12 596.88 117.81 608.65 103.74 616.37Z" fill="#FFDEE4"/>
<path d="M106.099 589.65C99.3595 600.63 89.4895 604.99 86.2495 606.27C85.5595 604.03 82.4995 593.27 88.3095 582.12C95.5595 568.21 110.379 565.64 112.009 565.38C112.259 568.92 112.539 579.16 106.099 589.65Z" fill="#FFDEE4"/>
<path d="M66.3897 535.65C62.1397 545.55 54.4997 550.35 51.9697 551.8C51.1297 550.03 47.2997 541.49 50.7697 531.57C55.0897 519.19 67.0397 515.27 68.3597 514.86C68.9997 517.76 70.4597 526.2 66.3897 535.65Z" fill="#FFDEE4"/>
<path d="M11.17 -71.1801C17.5 -91.4101 35.96 -104.56 54.59 -103.58C77.45 -102.38 97.29 -80.0701 94.9 -53.3301C97.85 -53.5101 113.14 -54.1601 123.83 -43.2901C135.71 -31.2001 137.13 -9.74007 125.54 7.81993C115.97 30.0299 95.72 43.4999 75.98 41.7599C61.48 40.4799 51.63 31.3699 47.97 27.5699C46.4 29.4899 22.76 57.2999 -14.18 52.9199C-39.67 49.8999 -61.57 32.7199 -70.98 8.42993C-94.27 2.05993 -107.86 -15.6001 -105.76 -27.5501C-103.41 -40.8901 -80.09 -54.8901 -51.51 -46.6801C-45.62 -63.8101 -31.67 -76.0101 -15.61 -77.8501C-2.64002 -79.3301 7.46998 -73.5701 11.17 -71.1801Z" fill="#F9C5D0"/>
<path d="M44.4101 -102.73C46.3801 -107.73 70.1 -108.82 85.7701 -95.6399C101.01 -82.8199 101.29 -62.6899 101.27 -58.7399C105.73 -58.6499 112.92 -57.8699 120.24 -53.7999C136.5 -44.7699 142.6 -25.5599 142.59 -11.6299C142.56 15.0201 120.16 35.0401 99.9801 41.6601C84.4701 46.7401 61.3301 46.8401 57.5301 37.1201C54.5101 29.4101 63.9401 16.2501 80.4501 5.29008C75.6201 -0.0899153 71.3401 -6.98992 72.0001 -14.6099C72.4901 -20.2399 75.2801 -21.7899 76.2101 -28.2699C77.7401 -38.9799 72.0401 -48.0899 71.0301 -49.6999C63.2801 -62.0799 52.1801 -61.5299 50.9601 -70.2899C50.1801 -75.8899 54.5701 -77.1899 54.2901 -84.0699C53.8501 -94.7399 42.9701 -99.0399 44.4201 -102.71L44.4101 -102.73Z" fill="#FFDEE4"/>
<path d="M74.3602 4.56016C62.3402 -0.489842 56.4702 -9.68984 54.7002 -12.7298C56.8302 -13.7598 67.1202 -18.4698 79.1602 -14.3798C94.1802 -9.26984 99.0202 5.15016 99.5302 6.74016C96.0302 7.54016 85.8402 9.38016 74.3602 4.56016Z" fill="#F9C5D0"/>
<path d="M162.53 993.22H147.23C123.664 993.22 104.56 1012.32 104.56 1035.89V1106.17C104.56 1129.74 123.664 1148.84 147.23 1148.84H162.53C186.096 1148.84 205.2 1129.74 205.2 1106.17V1035.89C205.2 1012.32 186.096 993.22 162.53 993.22Z" fill="#FFECD7"/>
<path d="M139.29 985.12H170.46C178.69 985.12 185.37 991.8 185.37 1000.03H124.38C124.38 991.8 131.06 985.12 139.29 985.12Z" fill="#3A4858"/>
<path d="M106.31 1023.54H168.1" stroke="white" stroke-width="2" stroke-linecap="round" stroke-linejoin="round"/>
<path d="M142.92 1011.54H180.99" stroke="white" stroke-width="2" stroke-linecap="round" stroke-linejoin="round"/>
<path d="M104.56 1035.47H205.2" stroke="white" stroke-width="2" stroke-linecap="round" stroke-linejoin="round"/>
<path d="M104.56 1047.71H205.2" stroke="white" stroke-width="2" stroke-linecap="round" stroke-linejoin="round"/>
<path d="M104.56 1059.95H205.2" stroke="white" stroke-width="2" stroke-linecap="round" stroke-linejoin="round"/>
<path d="M104.56 1072.19H205.2" stroke="white" stroke-width="2" stroke-linecap="round" stroke-linejoin="round"/>
<path d="M154.88 992.57V735.47" stroke="#3A4858" stroke-width="4" stroke-miterlimit="10"/>
<path d="M771.45 679.89C775.92 682.25 779.03 686.41 779.11 690.79C779.21 697.29 772.6 703.98 763.45 703.91C756.17 709.59 747.43 710.3 743.38 706.8C738.46 702.54 738.36 690.17 748.25 681.51C748.6 670.47 756.93 663.95 762.53 664.97C767.12 665.81 771.43 672.01 771.45 679.89Z" fill="#F9C5D0"/>
<path d="M751.12 671.24C756.24 677.75 756.66 684.67 756.71 686.91C755.21 686.83 748.04 686.27 742.62 680.28C735.86 672.81 737.61 663.31 737.82 662.27C740.01 662.91 746.24 665.03 751.13 671.25L751.12 671.24Z" fill="#F9C5D0"/>
<path d="M756.429 667.5C756.969 673.47 754.499 677.84 753.639 679.22C752.759 678.58 748.629 675.41 747.699 669.63C746.539 662.43 751.349 657.35 751.889 656.8C752.969 658.05 755.919 661.8 756.429 667.5Z" fill="#F9C5D0"/>
<path d="M739.62 679C745.3 680.91 748.31 684.94 749.22 686.27C748.28 686.81 743.71 689.32 738.05 687.85C730.99 686.01 728.28 679.56 728 678.85C729.58 678.37 734.19 677.18 739.62 679.01V679Z" fill="#F9C5D0"/>
<path d="M421.73 681.28C429.33 670.88 442.52 666.93 453.04 671.14C465.95 676.3 473 693.01 466.4 707.92C468.13 708.39 477.06 711.01 481.08 719.35C485.55 728.62 482.17 741.25 472.07 749.08C462.22 759.98 447.94 763.77 436.93 758.91C428.84 755.34 424.96 748.17 423.59 745.27C422.31 746.07 403.28 757.44 382.89 747.69C368.82 740.97 359.58 726.8 358.92 711C346.77 702.78 342.41 689.97 345.95 683.51C349.91 676.3 366.06 672.81 380.89 683.12C387.63 674.42 398.04 670.13 407.63 672.21C415.38 673.89 420.07 679.19 421.73 681.28Z" fill="#F9C5D0"/>
<path d="M447.01 669.64C449.12 667.15 462.98 671.16 469.42 681.81C475.68 692.16 471.9 703.8 471.12 706.07C473.67 706.99 477.65 708.85 481.06 712.62C488.65 720.99 488.4 733.24 485.67 741.24C480.44 756.56 463.64 763.7 450.74 763.56C440.83 763.45 427.5 758.98 427.21 752.64C426.98 747.61 434.98 741.89 446.61 738.81C444.88 734.77 443.77 729.97 445.64 725.71C447.02 722.57 448.93 722.22 450.73 718.68C453.71 712.82 452.21 706.46 451.94 705.34C449.9 696.71 443.41 694.85 444.42 689.57C445.07 686.19 447.85 686.31 449.03 682.29C450.86 676.07 445.45 671.47 447 669.64H447.01Z" fill="#FFDEE4"/>
<path d="M483.34 743.51C469.64 741.45 461.19 733.51 458.57 730.84C460.49 729.22 469.86 721.68 483.33 722.75C500.13 724.08 508.9 737.67 509.83 739.18C506.43 740.92 496.42 745.48 483.34 743.51Z" fill="#FFDEE4"/>
<path d="M483.82 729.99C471.28 735.87 459.84 733.96 456.18 733.19C456.88 730.78 460.5 719.3 472.3 712.72C487.02 704.51 501.85 710.96 503.46 711.69C501.6 715.02 495.79 724.37 483.82 729.99Z" fill="#FFDEE4"/>
<path d="M443.26 737.2C437.34 731.94 435.76 725.51 435.33 723.41C436.76 723.23 443.6 722.54 449.72 727.25C457.36 733.12 457.33 742.36 457.31 743.38C455.14 743.15 448.92 742.22 443.26 737.2Z" fill="#F9C5D0"/>
<path d="M453.43 728.73C448.51 729.36 444.81 727.45 443.65 726.79C444.15 726.04 446.65 722.53 451.4 721.58C457.32 720.39 461.67 724.22 462.14 724.65C461.14 725.58 458.13 728.14 453.43 728.74V728.73Z" fill="#F9C5D0"/>
<path d="M455.3 696.82C451.55 700.08 447.43 700.54 446.09 700.64C446.09 699.74 446.21 695.43 449.64 692C453.91 687.73 459.65 688.49 460.28 688.58C459.96 689.91 458.88 693.7 455.31 696.82H455.3Z" fill="#F9C5D0"/>
<path d="M443.19 709.49C439.46 710.68 436.33 709.73 435.33 709.39C435.61 708.74 437.04 705.66 440.59 704.24C445.01 702.47 448.93 704.82 449.35 705.08C448.71 705.95 446.74 708.35 443.19 709.49Z" fill="#FFDEE4"/>
<path d="M487.16 708.13C481.04 716.82 472.7 719.89 469.96 720.77C469.51 718.89 467.56 709.88 472.92 701.01C479.61 689.95 491.94 688.6 493.29 688.48C493.31 691.41 493 699.85 487.16 708.14V708.13Z" fill="#FFDEE4"/>
<path d="M456.08 668.29C454.27 672.53 451 674.6 449.92 675.22C449.56 674.46 447.91 670.81 449.38 666.56C451.22 661.25 456.33 659.57 456.9 659.39C457.18 660.63 457.81 664.24 456.08 668.3V668.29Z" fill="#FFDEE4"/>
<path d="M449.9 665.35C450.77 670.24 449.04 674.02 448.44 675.21C447.67 674.74 444.04 672.42 442.86 667.73C441.39 661.87 445 657.34 445.4 656.85C446.38 657.8 449.08 660.68 449.91 665.35H449.9Z" fill="#F9C5D0"/>
<path d="M-69.2601 2328.32C-15.5401 2127.38 15.3099 1971.05 33.3299 1866.22C48.2299 1779.53 51.9299 1742.16 43.4499 1694.3C29.1199 1613.39 -7.1001 1575.38 -42.3501 1438.74C-50.9701 1405.33 -56.4701 1378.96 -57.9201 1369.66C-88.1501 1175.86 -21.3501 959.91 118.85 827.38C163.19 785.47 249.88 703.52 339.15 721.89C424.89 739.53 441.27 834.94 546.2 853.11C553.19 854.32 631.22 866.6 697.2 817.82C799.84 741.94 776.24 590.07 774.21 589.75C772.2 589.43 782.91 737.45 691.81 801.93C629.23 846.23 549.55 829.18 541.37 827.31C441.83 804.52 435.85 719.55 356.47 684.21C232.62 629.06 42.0199 744.54 -57.6401 867.76C-153.12 985.8 -170.59 1116.77 -185.69 1229.93C-215.02 1449.75 -170.36 1515.5 -195.13 1647.25C-242.72 1900.39 -527.32 2074.87 -585.4 2105.38C-651.34 2140.01 -712.56 2160.6 -760.55 2173.13C-779.64 2178.12 -795.74 2181.6 -807.12 2183.88" fill="#3A4858"/>
<path d="M672.71 646.85C676 647.81 673.85 697.18 642.85 742.52C633.11 756.77 610.2 790.27 566.08 804.22C525.02 817.2 481.39 808.26 454.7 788.46C453.59 787.64 441.08 778.28 442.54 775.59C444.63 771.74 471.87 787.92 500.83 792.53C555.6 801.26 602.72 766.4 607.99 762.39C664.04 719.7 668.69 645.66 672.73 646.84L672.71 646.85Z" fill="#3A4858"/>
<path d="M179.21 849.48C189.78 870.44 188.29 894.95 175.19 911.76C157.9 933.95 122.66 939.81 94.8302 921.81C95.3702 934.89 95.2002 971.29 72.7302 988.11C42.4302 1010.79 -24.3098 994.76 -73.9298 929.85C-119.99 908.67 -154.73 871.74 -154.29 835.43C-153.66 783.87 -81.9498 722.98 20.4902 734.98C29.1702 709.11 52.2102 699.05 64.5902 704.91C73.5602 709.16 78.5602 722.52 77.6202 736.98C142.2 700.13 207.01 721.73 220.82 755.04C231.53 780.88 214.53 820.94 179.21 849.49V849.48Z" fill="#F9C5D0"/>
<path d="M84.1203 733.46C90.6203 711.42 143.95 701.73 184.77 717.27C195.82 721.48 219.74 730.58 230.64 754.13C243.74 782.44 232.04 821.49 201.06 851.43C203.29 858.05 206.92 871.85 203.63 888.72C202.75 893.25 198.46 912.93 185.63 923.87C166.57 940.12 129.02 936.77 96.4703 911.87C104.28 911.58 121.73 909.78 129.37 898.12C140.28 881.47 129.61 847.06 94.0803 822.68C93.1403 822.24 76.0303 813.88 74.0003 795.3C72.4603 781.24 80.2103 767.31 93.4703 760.62C82.6103 746.84 82.6903 738.29 84.1203 733.45V733.46Z" fill="#FFDEE4"/>
<path d="M49.7195 704.31C51.7995 700.03 64.8495 699.49 72.5695 705.61C83.7995 714.52 81.6595 735.88 72.8195 747.62C70.3595 750.89 65.4895 755.92 62.8895 754.75C58.9095 752.95 66.3095 739.28 60.8495 723.94C56.5995 712.01 47.8095 708.21 49.7095 704.31H49.7195Z" fill="#FFDEE4"/>
<path d="M98.14 935.42C99.02 939.95 102.93 960.09 90.74 975.9C76.48 994.4 50.96 993 40.69 992.44C18.11 991.2 -1.99003 980.25 -1.09003 976.34C-0.240027 972.62 18.27 980.71 38.08 972.86C71.28 959.7 77.81 913.77 89.44 916.28C94.65 917.41 96.57 927.32 98.14 935.43V935.42Z" fill="#FFDEE4"/>
<path d="M183.72 906.96C172.91 894.1 171.57 880.1 171.33 875.57C174.38 875.64 188.95 876.29 200.36 888.06C214.58 902.75 211.67 922.14 211.31 924.26C206.82 923.12 194.05 919.24 183.72 906.96Z" fill="#FFDEE4"/>
<path d="M195 895.04C178.87 890.34 170 879.43 167.28 875.79C169.86 874.16 182.34 866.61 198.36 870.09C218.34 874.42 226.67 892.18 227.55 894.14C223.18 895.68 210.4 899.54 195 895.05V895.04Z" fill="#FFDEE4"/>
<path d="M215.56 877.82C203.02 880.82 192.97 876.93 189.77 875.54C190.86 873.47 196.32 863.7 208.31 859.92C223.27 855.21 235.57 863.87 236.9 864.84C234.57 867.52 227.53 874.96 215.56 877.82Z" fill="#FFDEE4"/>
<path d="M193.14 719.11C191.13 735.34 182.02 745.57 178.95 748.74C176.98 746.52 167.79 735.69 168.64 719.75C169.7 699.87 185.47 689.11 187.22 687.96C189.38 691.92 195.07 703.6 193.15 719.1L193.14 719.11Z" fill="#FFDEE4"/>
<path d="M170.24 708.42C171.61 714.72 169.55 719.71 168.82 721.3C167.8 720.73 162.97 717.9 161.2 711.86C159 704.33 163.47 698.26 163.97 697.61C165.29 698.8 168.93 702.41 170.24 708.43V708.42Z" fill="#FFDEE4"/>
<path d="M128.44 837.91C119.77 847.45 109.27 849.9 105.85 850.55C105.59 848.22 104.59 837.08 112.37 827.2C122.07 814.88 137.11 815.11 138.76 815.16C138.35 818.69 136.72 828.8 128.44 837.91Z" fill="#F9C5D0"/>
<path d="M50.0994 983.88C44.2094 972.42 45.5994 961.72 46.1894 958.29C48.4594 958.86 59.2494 961.83 65.7694 972.58C73.8994 985.99 68.4094 1000 67.7894 1001.52C64.6294 999.9 55.7394 994.82 50.1094 983.88H50.0994Z" fill="#F9C5D0"/>
<path d="M60.5096 970.67C52.5096 965.38 49.5096 957.93 48.6396 955.49C50.3196 955.03 58.4096 953.03 66.5596 957.63C76.7196 963.37 78.2696 974.46 78.4196 975.68C75.7796 975.78 68.1596 975.73 60.5096 970.67Z" fill="#F9C5D0"/>
<path d="M65.8497 958.07C56.3297 959.23 49.2197 955.51 46.9697 954.21C47.9497 952.77 52.8097 946 61.9997 944.22C73.4597 942 81.8297 949.44 82.7297 950.27C80.7797 952.06 74.9497 956.96 65.8497 958.07Z" fill="#F9C5D0"/>
<path d="M127.12 852.82C119.66 855.21 113.39 853.31 111.4 852.61C111.97 851.31 114.83 845.14 121.92 842.3C130.77 838.77 138.61 843.45 139.46 843.98C138.17 845.71 134.24 850.53 127.12 852.81V852.82Z" fill="#F9C5D0"/>
<path d="M290.55 730.82C287.29 738.13 279.22 741.96 271.8 739.94C264.94 738.07 260.07 731.6 260.14 724.23C256.08 724.62 254.49 723.16 254.06 722.71C251.28 719.81 252.44 712.47 258.62 705.48C261.07 703.35 266.28 699.45 273.57 698.64C286.88 697.17 302.82 706.47 302.46 716.63C302.19 724.27 292.81 729.6 290.55 730.82Z" fill="#F9C5D0"/>
<path d="M255.08 729.99C263.58 724.27 272.16 724.37 274.93 724.51C274.69 726.36 273.35 735.15 265.47 741.31C255.64 748.98 244.06 745.95 242.8 745.6C243.79 742.95 246.97 735.45 255.09 729.99H255.08Z" fill="#F9C5D0"/>
<path d="M264.45 743.52C265.97 735.8 270.68 731.21 272.27 729.8C273.14 730.93 277.18 736.44 276.23 744.05C275.04 753.54 267.12 758.17 266.24 758.66C265.34 756.69 263.01 750.89 264.46 743.53L264.45 743.52Z" fill="#F9C5D0"/>
<path d="M255.21 713.6C261.84 717.82 264.41 723.88 265.15 725.87C263.78 726.27 257.18 728.03 250.44 724.37C242.03 719.81 240.6 710.75 240.47 709.75C242.63 709.63 248.88 709.57 255.22 713.6H255.21Z" fill="#F9C5D0"/>
<path d="M275.9 704.58C279.16 697.27 287.23 693.44 294.65 695.46C301.51 697.33 306.38 703.8 306.31 711.17C310.37 710.78 311.96 712.24 312.39 712.69C315.17 715.59 314.01 722.93 307.83 729.92C305.38 732.05 300.17 735.95 292.88 736.76C279.57 738.23 263.63 728.93 263.99 718.77C264.26 711.13 273.64 705.8 275.9 704.58Z" fill="#FFDEE4"/>
<path d="M316.14 710.4C307.64 716.12 299.06 716.02 296.29 715.88C296.53 714.03 297.87 705.24 305.75 699.08C315.58 691.41 327.16 694.44 328.42 694.79C327.43 697.44 324.25 704.94 316.13 710.4H316.14Z" fill="#FFDEE4"/>
<path d="M306.76 696.86C305.24 704.58 300.53 709.17 298.94 710.58C298.07 709.45 294.03 703.94 294.98 696.33C296.17 686.84 304.09 682.21 304.97 681.72C305.87 683.69 308.2 689.49 306.75 696.85L306.76 696.86Z" fill="#FFDEE4"/>
<path d="M773.73 680.74C770.95 682.98 767.38 683.84 764.52 682.67C760.27 680.92 757.78 674.77 760.38 668.85C758.72 662.54 760.7 656.67 764.1 655.02C768.24 653.01 776.29 656.4 779.15 665.24C786.21 668.55 788.12 675.78 785.9 679.12C784.08 681.86 778.85 682.93 773.73 680.75V680.74Z" fill="#FFDEE4"/>
<path d="M787.37 670.1C779.3 672.25 772.72 669.88 770.63 669.04C771.31 667.68 774.68 661.26 782.39 658.62C792 655.33 800.11 660.74 800.99 661.35C799.53 663.13 795.08 668.05 787.37 670.1Z" fill="#FFDEE4"/>
<path d="M784.75 656.35C780.71 660.85 775.79 662.03 774.19 662.35C774.06 661.26 773.56 656.03 777.18 651.37C781.7 645.56 788.76 645.62 789.53 645.64C789.35 647.3 788.61 652.05 784.76 656.34L784.75 656.35Z" fill="#FFDEE4"/>
<path d="M521.81 800.84C526.28 803.2 529.39 807.36 529.47 811.74C529.57 818.24 522.96 824.93 513.81 824.86C506.53 830.54 497.79 831.25 493.74 827.75C488.82 823.49 488.72 811.12 498.61 802.46C498.96 791.42 507.29 784.9 512.89 785.92C517.48 786.76 521.79 792.96 521.81 800.84Z" fill="#F9C5D0"/>
<path d="M501.48 792.18C506.6 798.69 507.02 805.61 507.07 807.85C505.57 807.77 498.4 807.21 492.98 801.22C486.22 793.75 487.97 784.25 488.18 783.21C490.37 783.85 496.6 785.97 501.49 792.19L501.48 792.18Z" fill="#F9C5D0"/>
<path d="M506.79 788.45C507.33 794.42 504.86 798.79 504 800.17C503.12 799.53 498.99 796.36 498.06 790.58C496.9 783.38 501.71 778.3 502.25 777.75C503.33 779 506.28 782.75 506.79 788.45Z" fill="#F9C5D0"/>
<path d="M489.979 799.95C495.659 801.86 498.669 805.89 499.579 807.22C498.639 807.76 494.069 810.27 488.409 808.8C481.349 806.96 478.639 800.51 478.359 799.8C479.939 799.32 484.549 798.13 489.979 799.96V799.95Z" fill="#F9C5D0"/>
<path d="M524.09 801.69C521.31 803.93 517.74 804.79 514.88 803.62C510.63 801.87 508.14 795.72 510.74 789.8C509.08 783.49 511.06 777.62 514.46 775.97C518.6 773.96 526.65 777.35 529.51 786.19C536.57 789.5 538.48 796.73 536.26 800.07C534.44 802.81 529.21 803.88 524.09 801.7V801.69Z" fill="#FFDEE4"/>
<path d="M537.73 791.05C529.66 793.2 523.08 790.83 520.99 789.99C521.67 788.63 525.04 782.21 532.75 779.57C542.36 776.28 550.47 781.69 551.35 782.3C549.89 784.08 545.44 789 537.73 791.05Z" fill="#FFDEE4"/>
<path d="M535.11 777.3C531.07 781.8 526.15 782.98 524.55 783.3C524.42 782.21 523.92 776.98 527.54 772.32C532.06 766.51 539.12 766.57 539.89 766.59C539.71 768.25 538.97 773 535.12 777.29L535.11 777.3Z" fill="#FFDEE4"/>
<path d="M679.72 609.36C678.84 609.16 672.74 607.84 667.03 611.37C658.92 616.38 655.46 628.78 659.75 641.77C658.09 642.95 651.72 647.75 649.9 656.54C648.79 661.87 649.85 666.29 650.56 668.53C646.45 669.2 638.91 671.09 632.64 677.2C622.04 687.54 617.24 707.81 626.69 715.81C633.08 721.22 645.03 720.21 655.78 713.83C657.26 713.99 666.01 714.8 673.34 708.43C679.19 703.34 680.51 696.82 680.82 694.9C683.54 694.23 689.11 692.39 691.94 687.48C696.35 679.81 692.74 667.03 681.16 658.64C683.31 657.49 693.88 651.56 696.34 639.89C699.05 627.05 691.15 612.01 679.71 609.36H679.72Z" fill="#F9C5D0"/>
<path d="M679.72 609.36C682.79 609.04 687.27 609.14 691.39 611.61C700.79 617.23 701.83 631.3 699.59 640.32C697.88 647.24 694.03 652.01 691.55 654.58C691.83 654.98 692.52 656.09 692.34 657.48C692.1 659.35 690.38 660.97 688.06 661.35C689.4 662.88 691.18 665.22 692.66 668.36C694.35 671.95 697.89 679.33 695.02 685.82C691.27 694.29 678.57 696.88 676.93 694.66C675.9 693.26 679.71 690.61 678.84 686.45C678.06 682.73 674.46 682.2 672.92 678.65C671.93 676.37 671.7 672.64 675.42 666.37C671.62 663.18 670.43 658.03 672.36 653.99C674.66 649.17 680.2 648.47 680.54 648.43C677.68 643.53 677.52 637.75 680.24 633.45C682.3 630.19 685.38 628.79 686.76 628.26C680.28 626.45 676.12 621.3 676.36 616.27C676.53 612.8 678.74 610.33 679.71 609.37L679.72 609.36Z" fill="#FFDEE4"/>
<path d="M697.56 642.79C706.18 638.65 714.08 639.9 716.61 640.41C716.14 642.08 713.72 650.02 705.62 654.64C695.51 660.4 685.24 656.04 684.12 655.55C685.39 653.24 689.33 646.75 697.56 642.8V642.79Z" fill="#FFDEE4"/>
<path d="M700.409 619.02C706.719 618.34 711.379 620.86 712.859 621.74C712.199 622.68 708.929 627.11 702.839 628.21C695.239 629.58 689.779 624.59 689.189 624.03C690.489 622.86 694.389 619.67 700.419 619.02H700.409Z" fill="#FFDEE4"/>
<path d="M677.71 610.19C676.05 607.07 676.39 604.13 676.54 603.18C677.16 603.33 680.14 604.1 681.97 607.03C684.25 610.68 682.8 614.54 682.63 614.96C681.76 614.53 679.3 613.17 677.71 610.19Z" fill="#FFDEE4"/>
<path d="M681.7 605.35C682.63 601.94 684.9 600.03 685.65 599.45C686 599.99 687.64 602.59 686.96 605.97C686.12 610.19 682.41 612.01 682 612.2C681.66 611.29 680.8 608.61 681.69 605.35H681.7Z" fill="#FFDEE4"/>
<path d="M650.46 638.66C656.66 639.98 660.31 643.84 661.43 645.14C660.51 645.83 656.01 649.01 649.89 648.15C642.25 647.07 638.619 640.62 638.229 639.91C639.829 639.21 644.54 637.4 650.46 638.66Z" fill="#F9C5D0"/>
<path d="M657.52 635.14C661.19 638.42 662.16 642.43 662.42 643.73C661.53 643.84 657.28 644.26 653.48 641.31C648.74 637.64 648.78 631.89 648.8 631.26C650.15 631.41 654.02 632 657.53 635.13L657.52 635.14Z" fill="#F9C5D0"/>
<path d="M629.29 680.09C634.2 680.53 637.37 683.17 638.35 684.06C637.7 684.68 634.54 687.55 629.73 687.46C623.74 687.35 620.34 682.71 619.97 682.2C621.14 681.51 624.6 679.68 629.28 680.1L629.29 680.09Z" fill="#F9C5D0"/>
<path d="M635.05 671.24C638.75 676.21 638.94 681.4 638.93 683.07C637.81 682.98 632.45 682.42 628.51 677.83C623.59 672.11 625.09 665.03 625.27 664.26C626.9 664.78 631.52 666.49 635.05 671.23V671.24Z" fill="#F9C5D0"/>
<path d="M647.57 662.91C651.68 665.62 653.23 669.44 653.67 670.7C652.81 670.94 648.66 671.97 644.47 669.61C639.25 666.67 638.45 660.98 638.37 660.35C639.73 660.3 643.64 660.32 647.57 662.91Z" fill="#F9C5D0"/>
<path d="M699.18 656.27C705.21 660.44 707.39 666.18 708.01 668.06C706.72 668.38 700.51 669.79 694.35 666.14C686.67 661.6 685.67 653.1 685.57 652.16C687.59 652.12 693.41 652.29 699.18 656.26V656.27Z" fill="#FFDEE4"/>
<path d="M669.77 648.22C672.59 647.87 674.7 648.98 675.37 649.36C675.08 649.79 673.64 651.79 670.91 652.32C667.51 652.98 665.03 650.77 664.76 650.53C665.34 650 667.07 648.54 669.77 648.22Z" fill="#FFDEE4"/>
<path d="M673.23 682.73C676.89 680.49 680.47 680.69 681.63 680.8C681.5 681.57 680.78 685.22 677.37 687.65C673.12 690.68 668.34 689.21 667.81 689.04C668.27 687.95 669.73 684.87 673.23 682.73Z" fill="#FFDEE4"/>
<path d="M670.54 676.25C675.68 677.15 678.79 680.21 679.75 681.23C679.01 681.82 675.42 684.58 670.36 684.06C664.05 683.41 660.87 678.22 660.53 677.65C661.82 677.03 665.63 675.4 670.54 676.25Z" fill="#FFDEE4"/>
<path d="M680.51 643C677.58 645.63 674.31 646.04 673.25 646.13C673.25 645.42 673.29 642 675.96 639.24C679.29 635.8 683.86 636.34 684.35 636.41C684.12 637.47 683.3 640.49 680.5 643H680.51Z" fill="#F9C5D0"/>
<path d="M682.539 651.2C677.619 650.65 674.49 647.93 673.52 647.01C674.19 646.41 677.43 643.58 682.26 643.78C688.28 644.03 691.6 648.76 691.95 649.28C690.76 649.95 687.239 651.71 682.539 651.19V651.2Z" fill="#F9C5D0"/>
<path d="M743.89 734.94C735.42 729.74 722.7 735.58 714.62 739.29C699.36 746.3 690.66 757.64 686.7 763.66C684.54 762.44 668.03 753.43 651.43 760.63C634.67 767.9 624.69 788.71 629.62 810.4C595.1 814.98 573.32 829.47 574.02 840.37C574.65 850.11 593.39 859.46 617.38 863.24C619.36 864.78 631.16 873.67 647.27 871.02C660.14 868.91 667.78 860.74 669.92 858.28C674.4 859.73 683.98 862.02 692.37 857.49C705.46 850.42 711.58 828.95 702.42 806.71C706.52 806.97 726.86 807.82 740.7 793.31C757.68 775.5 756.87 742.92 743.89 734.95V734.94Z" fill="#F9C5D0"/>
<path d="M743.89 734.94C747.85 733.51 755.18 740.79 758.59 748.46C765.74 764.53 756.95 785.04 744.96 796.77C736.4 805.15 726.68 808.57 720.86 810.07C720.91 810.89 720.91 813.09 719.43 814.92C717.43 817.39 713.54 818.18 709.89 816.67C710.46 820.05 710.94 824.96 710.28 830.77C709.83 834.73 708.06 850.33 698.22 857.82C680.99 870.95 648.79 851.74 649.55 848.37C650.04 846.22 663.69 851.69 674.53 844.41C684.48 837.72 686.92 823.75 687.37 812.66C684.75 804.75 687.6 796.32 693.93 792.25C701.47 787.4 710.02 791.28 710.54 791.53C719.8 787.57 731.55 780.63 737.27 768.18C744.34 752.78 738.56 736.86 743.89 734.93V734.94Z" fill="#FFDEE4"/>
<path d="M739.88 798.52C755.86 800.22 766.06 808.98 769.23 811.94C767.08 813.91 756.61 823.13 740.94 822.57C721.4 821.88 710.55 806.57 709.39 804.88C713.24 802.69 724.62 796.9 739.88 798.51V798.52Z" fill="#FFDEE4"/>
<path d="M760.38 743.97C770.37 740.24 779.02 742.41 781.78 743.23C781.09 745.04 777.61 753.62 768.14 757.94C756.34 763.33 745.36 757.46 744.17 756.8C745.81 754.36 750.84 747.54 760.38 743.98V743.97Z" fill="#FFDEE4"/>
<path d="M740.29 734.35C740.67 728.42 743.76 724.51 744.81 723.3C745.57 724.06 749.14 727.8 749.17 733.6C749.21 740.83 743.72 745.08 743.11 745.53C742.24 744.14 739.93 740.02 740.29 734.36V734.35Z" fill="#FFDEE4"/>
<path d="M750.27 730.96C754.62 726.9 759.54 726.18 761.14 726.01C761.17 727.09 761.21 732.25 757.26 736.5C752.33 741.79 745.42 741.12 744.67 741.03C744.99 739.42 746.13 734.84 750.28 730.97L750.27 730.96Z" fill="#FFDEE4"/>
<path d="M677.45 751.63C681.78 761.37 680.13 770.14 679.49 772.95C677.64 772.37 668.87 769.41 663.99 760.23C657.9 748.77 663.09 737.46 663.68 736.23C666.21 737.72 673.32 742.33 677.46 751.63H677.45Z" fill="#F9C5D0"/>
<path d="M689.22 757.77C688.39 766.01 683.89 771.29 682.38 772.93C681.36 771.83 676.58 766.45 676.83 758.38C677.14 748.31 685 742.68 685.87 742.08C687.01 744.06 690.02 749.91 689.23 757.77H689.22Z" fill="#F9C5D0"/>
<path d="M695.88 816.82C687.6 816.68 681.96 812.65 680.2 811.28C681.21 810.17 686.17 804.96 694.23 804.52C704.29 803.98 710.56 811.33 711.24 812.15C709.36 813.45 703.79 816.95 695.88 816.82Z" fill="#F9C5D0"/>
<path d="M687.3 832.38C680.48 824.5 679.54 815.83 679.35 813.02C681.24 813.04 690.29 813.32 697.46 820.52C706.4 829.51 704.76 841.56 704.56 842.88C701.77 842.21 693.81 839.91 687.3 832.39V832.38Z" fill="#F9C5D0"/>
<path d="M613.68 871.25C615.39 863.15 620.42 858.38 622.11 856.91C623.01 858.11 627.18 863.97 626.07 871.97C624.69 881.95 616.27 886.71 615.34 887.21C614.42 885.12 612.05 878.98 613.68 871.25Z" fill="#F9C5D0"/>
<path d="M600.04 859.87C609.08 854.68 617.77 855.41 620.56 855.75C620.18 857.6 618.19 866.43 609.75 872.1C599.22 879.17 587.71 875.26 586.45 874.81C587.64 872.2 591.41 864.82 600.04 859.87Z" fill="#F9C5D0"/>
<path d="M659.95 751.17C666.36 756.41 668.29 763.07 668.82 765.24C667.34 765.49 660.22 766.5 653.62 761.84C645.39 756.03 645.03 746.37 645.01 745.31C647.29 745.45 653.83 746.16 659.95 751.17Z" fill="#F9C5D0"/>
<path d="M730.28 819.23C735.23 830.52 733.27 840.65 732.5 843.89C730.37 843.21 720.24 839.73 714.66 829.08C707.69 815.8 713.76 802.75 714.45 801.33C717.37 803.06 725.56 808.44 730.28 819.22V819.23Z" fill="#FFDEE4"/>
<path d="M706.039 1090.04C725.429 1104.9 731.709 1124.36 733.479 1130.72C729.129 1131.58 708.229 1135.23 688.349 1122.09C663.549 1105.7 661.599 1077.26 661.439 1074.14C668.169 1074.36 687.519 1075.85 706.039 1090.04Z" fill="#FFDEE4"/>
</g>
</g>
<defs>
<linearGradient id="paint0_linear_129_2422" x1="578.959" y1="250.94" x2="1006.36" y2="250.94" gradientUnits="userSpaceOnUse">
<stop stop-color="#3A4858"/>
<stop offset="1" stop-color="#6188B5"/>
</linearGradient>
<linearGradient id="paint1_linear_129_2422" x1="751.8" y1="318.77" x2="833.52" y2="318.77" gradientUnits="userSpaceOnUse">
<stop stop-color="#3A4858"/>
<stop offset="1" stop-color="#6188B5"/>
</linearGradient>
<linearGradient id="paint2_linear_129_2422" x1="694.47" y1="378.371" x2="714.69" y2="378.371" gradientUnits="userSpaceOnUse">
<stop stop-color="#3A4858"/>
<stop offset="1" stop-color="#6188B5"/>
</linearGradient>
<linearGradient id="paint3_linear_129_2422" x1="712.77" y1="386.07" x2="733.479" y2="386.07" gradientUnits="userSpaceOnUse">
<stop stop-color="#3A4858"/>
<stop offset="1" stop-color="#6188B5"/>
</linearGradient>
<linearGradient id="paint4_linear_129_2422" x1="732.17" y1="391.34" x2="752.93" y2="391.34" gradientUnits="userSpaceOnUse">
<stop stop-color="#3A4858"/>
<stop offset="1" stop-color="#6188B5"/>
</linearGradient>
<linearGradient id="paint5_linear_129_2422" x1="752.109" y1="394.65" x2="772.719" y2="394.65" gradientUnits="userSpaceOnUse">
<stop stop-color="#3A4858"/>
<stop offset="1" stop-color="#6188B5"/>
</linearGradient>
<linearGradient id="paint6_linear_129_2422" x1="772.319" y1="396.25" x2="792.659" y2="396.25" gradientUnits="userSpaceOnUse">
<stop stop-color="#3A4858"/>
<stop offset="1" stop-color="#6188B5"/>
</linearGradient>
<linearGradient id="paint7_linear_129_2422" x1="792.659" y1="396.24" x2="812.599" y2="396.24" gradientUnits="userSpaceOnUse">
<stop stop-color="#3A4858"/>
<stop offset="1" stop-color="#6188B5"/>
</linearGradient>
<linearGradient id="paint8_linear_129_2422" x1="812.989" y1="394.64" x2="832.379" y2="394.64" gradientUnits="userSpaceOnUse">
<stop stop-color="#3A4858"/>
<stop offset="1" stop-color="#6188B5"/>
</linearGradient>
<linearGradient id="paint9_linear_129_2422" x1="833.209" y1="391.32" x2="851.829" y2="391.32" gradientUnits="userSpaceOnUse">
<stop stop-color="#3A4858"/>
<stop offset="1" stop-color="#6188B5"/>
</linearGradient>
<linearGradient id="paint10_linear_129_2422" x1="853.149" y1="386.02" x2="870.629" y2="386.02" gradientUnits="userSpaceOnUse">
<stop stop-color="#3A4858"/>
<stop offset="1" stop-color="#6188B5"/>
</linearGradient>
<linearGradient id="paint11_linear_129_2422" x1="872.539" y1="378.28" x2="888.099" y2="378.28" gradientUnits="userSpaceOnUse">
<stop stop-color="#3A4858"/>
<stop offset="1" stop-color="#6188B5"/>
</linearGradient>
<clipPath id="clip0_129_2422">
<rect width="1080" height="1080" fill="white"/>
</clipPath>
<clipPath id="clip1_129_2422">
<rect width="1080" height="2340" fill="white"/>
</clipPath>
</defs>
</svg>
