<svg width="24" height="32" viewBox="0 0 24 32" fill="none" xmlns="http://www.w3.org/2000/svg">
<path d="M12.8134 32.0001C5.62607 32.0001 0 26.374 0 19.1867C0 11.9994 5.63165 6.37329 12.8134 6.37329C17.3745 6.37329 20.2238 8.52001 21.233 9.44561C22.2757 10.3991 22.8723 11.7094 22.8723 13.0309C22.8723 14.2465 22.4597 15.317 21.6122 16.304L18.4506 20.0621C18.5287 20.0621 18.6123 20.0565 18.696 20.0565C21.3557 20.0565 23.441 22.1252 23.441 24.7682C23.441 25.8555 22.9838 26.9874 22.1809 27.8962C20.0342 30.4667 16.5325 32.0001 12.8078 32.0001H12.8134Z" fill="white"/>
<path d="M20.1573 26.1397C20.5365 25.7215 20.7707 25.1862 20.7707 24.7625C20.7707 23.5748 19.8897 22.7384 18.7076 22.7384C17.9047 22.7384 17.4865 23.1956 16.8731 23.6919C15.9587 24.6454 14.6205 25.4093 12.8195 25.4093C9.49623 25.4093 6.93132 22.6213 6.93132 19.181C6.93132 15.7407 9.52969 12.9527 12.8195 12.9527C13.6614 12.9527 14.693 13.1813 15.3453 13.6441L10.7173 19.0695C10.3716 19.4152 10.2601 19.8724 10.2601 20.3296C10.2601 21.4392 11.1021 22.2422 12.2507 22.2422C12.825 22.2422 13.2823 22.0526 13.706 21.5563L19.5942 14.5586C20.0514 14.0233 20.2075 13.5661 20.2075 13.0308C20.2075 12.4174 19.9008 11.8431 19.4436 11.4249C18.1444 10.2373 15.8137 9.05518 12.8306 9.05518C7.02053 9.05518 2.69922 13.527 2.69922 19.1866C2.69922 24.8461 7.05957 29.318 12.8306 29.318C16.0814 29.318 18.7188 27.9017 20.1685 26.1453L20.1573 26.1397Z" fill="#221FAA"/>
<path d="M11.2076 7.90662C11.7819 7.90662 12.3562 7.59995 12.7354 7.18175L15.9861 3.2842C16.2538 2.9385 16.4433 2.48127 16.4433 2.02405C16.4433 0.914447 15.4899 0 14.3803 0C13.8059 0 13.2316 0.228612 12.8134 0.724866L9.60172 4.62242C9.29505 5.00715 9.10547 5.42535 9.10547 5.88257C9.10547 6.99217 10.137 7.90662 11.2076 7.90662Z" fill="#E2006C"/>
</svg>
