<svg width="80" height="80" viewBox="0 0 80 80" fill="none" xmlns="http://www.w3.org/2000/svg">
<g clip-path="url(#clip0_2_3)">
<path d="M5 3C5 1.34315 6.34315 0 8 0H12C13.6569 0 15 1.34315 15 3V80H9C6.79086 80 5 78.2091 5 76V3Z" fill="#FFBE40"/>
<path d="M65 3C65 1.34315 66.3431 0 68 0H72C73.6569 0 75 1.34315 75 3V76C75 78.2091 73.2091 80 71 80H65V3Z" fill="#FFBE40"/>
<path d="M5 70H75V76C75 78.2091 73.2091 80 71 80H9C6.79086 80 5 78.2091 5 76V70Z" fill="#FFBE40"/>
<path d="M76 32H4C1.79086 32 0 33.7909 0 36V43C0 45.2091 1.79086 47 4 47H76C78.2091 47 80 45.2091 80 43V36C80 33.7909 78.2091 32 76 32Z" fill="#FFDF40"/>
<path d="M65 4H15V32H65V4Z" fill="#2E447D"/>
<path d="M65 47H15V70H65V47Z" fill="#2E447D"/>
<path d="M46 25H34C31.7909 25 30 26.7909 30 29V51C30 53.2091 31.7909 55 34 55H46C48.2091 55 50 53.2091 50 51V29C50 26.7909 48.2091 25 46 25Z" fill="#D9D9D9"/>
<path d="M40 41C42.2091 41 44 39.2091 44 37C44 34.7909 42.2091 33 40 33C37.7909 33 36 34.7909 36 37C36 39.2091 37.7909 41 40 41Z" fill="black"/>
<path d="M40 39L43.4641 45H36.5359L40 39Z" fill="black"/>
</g>
<defs>
<clipPath id="clip0_2_3">
<rect width="80" height="80" fill="white"/>
</clipPath>
</defs>
</svg>
