<svg width="80" height="80" viewBox="0 0 80 80" fill="none" xmlns="http://www.w3.org/2000/svg">
<g clip-path="url(#clip0_10_222)">
<rect y="70" width="80" height="10" rx="3" fill="#FFBE40"/>
<path d="M3 12C3 9.79086 4.79086 8 7 8H21C23.2091 8 25 9.79086 25 12V70H3V12Z" fill="#2E447D"/>
<path d="M25 4C25 1.79086 26.7909 0 29 0H51C53.2091 0 55 1.79086 55 4V70H25V4Z" fill="#FFDF40"/>
<path d="M55 12C55 9.79086 56.7909 8 59 8H73C75.2091 8 77 9.79086 77 12V70H55V12Z" fill="#2E447D"/>
<path d="M20.5 34.134C21.1667 34.5189 21.1667 35.4811 20.5 35.866L11.5 41.0622C10.8333 41.4471 10 40.966 10 40.1962V29.8038C10 29.034 10.8333 28.5529 11.5 28.9378L20.5 34.134Z" fill="#FFDF40"/>
<path d="M48.5 34.134C49.1667 34.5189 49.1667 35.4811 48.5 35.866L36.5 42.7942C35.8333 43.1791 35 42.698 35 41.9282V28.0718C35 27.302 35.8333 26.8209 36.5 27.2058L48.5 34.134Z" fill="#2E447D"/>
<path d="M72.5 34.134C73.1667 34.5189 73.1667 35.4811 72.5 35.866L63.5 41.0622C62.8333 41.4471 62 40.966 62 40.1962V29.8038C62 29.034 62.8333 28.5529 63.5 28.9378L72.5 34.134Z" fill="#FFDF40"/>
</g>
<defs>
<clipPath id="clip0_10_222">
<rect width="80" height="80" fill="white"/>
</clipPath>
</defs>
</svg>
