<svg width="80" height="80" viewBox="0 0 80 80" fill="none" xmlns="http://www.w3.org/2000/svg">
<g clip-path="url(#clip0_10_239)">
<circle cx="40" cy="31" r="31" fill="#FFDF40"/>
<path d="M76 139C105.823 139 130 114.823 130 85C130 55.1766 105.823 31 76 31C46.1766 31 22 55.1766 22 85C22 114.823 46.1766 139 76 139Z" fill="#2E447D"/>
<path d="M1.5 143C29.9427 143 53 119.943 53 91.5C53 63.0573 29.9427 40 1.5 40C-26.9427 40 -50 63.0573 -50 91.5C-50 119.943 -26.9427 143 1.5 143Z" fill="#FFBE40"/>
<path d="M29.5789 42C28.1579 42 26.7526 41.6535 25.3631 40.9604C23.9737 40.2674 22.8526 39.3538 22 38.2197C22.821 38.2197 23.6579 37.8968 24.5105 37.251C25.3631 36.6052 25.7895 35.668 25.7895 34.4394C25.7895 32.8643 26.3421 31.5255 27.4474 30.4228C28.5527 29.3202 29.8947 28.769 31.4737 28.769C33.0526 28.769 34.3948 29.3202 35.5 30.4228C36.6053 31.5255 37.1579 32.8643 37.1579 34.4394C37.1579 36.5185 36.4158 38.2984 34.9316 39.7791C33.4474 41.2597 31.6632 42 29.5789 42ZM29.5789 38.2197C30.621 38.2197 31.5132 37.8495 32.2553 37.1092C32.9974 36.3689 33.3684 35.479 33.3684 34.4394C33.3684 33.9039 33.1868 33.455 32.8237 33.0927C32.4605 32.7304 32.0105 32.5492 31.4737 32.5492C30.9368 32.5492 30.4868 32.7304 30.1236 33.0927C29.7605 33.455 29.5789 33.9039 29.5789 34.4394C29.5789 35.164 29.4921 35.8255 29.3184 36.424C29.1447 37.0227 28.9158 37.5897 28.6316 38.1252C28.7894 38.1882 28.9473 38.2197 29.1052 38.2197H29.5789ZM40.4737 30.6591L35.2631 25.4612L52.2211 8.54436C52.5684 8.19783 53.0026 8.0167 53.5237 8.00095C54.0448 7.98519 54.4947 8.16633 54.8737 8.54436L57.4316 11.0961C57.8106 11.4741 58 11.9151 58 12.4192C58 12.9232 57.8106 13.3642 57.4316 13.7423L40.4737 30.6591Z" fill="#2E447D"/>
</g>
<defs>
<clipPath id="clip0_10_239">
<rect width="80" height="80" rx="13" fill="white"/>
</clipPath>
</defs>
</svg>
